<svg width="800" height="600" xmlns="http://www.w3.org/2000/svg">

 <g>
  <title>Layer 1</title>
  <metadata>Created by potrace 1.10, written by Peter Selinger 2001-2011</metadata>
  <path d="m418.80209,154.39238l-1,2.6l-18.2,0.2c-22.1,0.1 -21.5,0.1 -30.8,2.2c-55.5,12.4 -97.4,52.5 -111.6,106.8c-2.3,9 -2.7,12.8 -3.1,30.5c-0.4,16.2 -0.2,22.2 1.2,30.5c1.8,10.9 5.9,24.5 10.2,33.7c1.6,3.5 2.7,7.8 2.9,11.4c0.1,3.2 0.8,6.5 1.5,7.3c0.9,1.1 0.9,1.8 0.1,2.6c-1.4,1.4 -1.6,6.4 -0.3,7.2c0.5,0.4 0.5,1.8 -0.2,3.6c-1,2.5 -0.8,3.4 1.1,5.9c1.2,1.7 2.2,4 2.2,5.3c0,2.8 0.5,3.4 5.4,7.6c4.6,4 6.3,3.8 13.7,-1.4c5.2,-3.6 6.9,-3.6 10,0.2c3.6,4.4 22.3,17.1 32.3,21.9c10.6,5.1 21.2,9.2 26.5,10.2c1.4,0.2 2.8,0.6 3.3,0.9c0.4,0.3 2.9,0.7 5.5,1c2.7,0.3 6,1.2 7.6,1.9c1.5,0.8 2.5,0.9 2.2,0.4c-0.7,-1 0.8,-1.3 1.8,-0.3c0.8,0.9 37.6,1.1 37.1,0.3c-0.2,-0.4 0.7,-0.6 2,-0.5c1.3,0 2.2,0.5 1.9,1c-0.3,0.5 0,0.6 0.8,0.4c0.8,-0.3 1.3,-1 1.2,-1.6c-0.1,-0.5 1.3,-1.2 3.2,-1.4c1.8,-0.2 3.1,0 2.9,0.4c-0.3,0.4 0,0.8 0.5,0.8c0.6,0 1.1,-0.4 1.1,-0.8c0,-0.5 1.5,-0.7 3.3,-0.5c2.4,0.2 2.7,0.1 1.2,-0.5c-1.8,-0.8 -1.7,-0.9 0.7,-1.5c1.5,-0.4 3.3,-0.4 4.2,-0.1c0.8,0.3 3.2,0 5.2,-0.6c2.8,-0.9 3.3,-1.5 2.3,-2.2c-1,-0.7 -0.6,-0.8 1.2,-0.4c1.5,0.3 4.4,-0.1 6.5,-1c5.3,-2.1 16.6,-7.7 18.1,-8.9c0.7,-0.6 5.1,-3.5 9.8,-6.5c5.7,-3.7 8.3,-6 8,-7c-0.2,-0.8 0.8,-2.3 2.3,-3.4l2.7,-1.9l-2.4,2.6c-5.2,5.7 -0.1,2.3 7,-4.6c8.5,-8.3 15.3,-16.3 19.5,-22.7c1.6,-2.5 3.2,-4.7 3.7,-4.8c0.4,-0.2 0.7,-1 0.7,-1.7c0,-0.7 0.3,-1.5 0.8,-1.7c1.3,-0.6 7.3,-13.9 6.7,-14.8c-0.3,-0.6 -0.1,-1.8 0.5,-2.7c1,-1.6 1.1,-1.6 0.5,0.2c-0.5,1.6 -0.4,1.7 0.6,0.8c0.7,-0.7 1.2,-2.8 1.1,-4.7c-0.1,-1.9 0.3,-3.8 0.7,-4.1c0.5,-0.3 0.7,0.5 0.5,1.7l-0.5,2.3l1,-2.3c0.6,-1.2 0.7,-3 0.4,-3.9c-0.4,-1.1 -0.3,-1.4 0.6,-0.9c0.8,0.5 1.2,0.3 1,-0.5c-0.1,-0.8 -0.1,-2.5 0,-3.9c0.1,-2 0.3,-2.2 1.1,-1c0.7,1.1 0.9,0.8 0.9,-1.5c0,-5.8 1.3,-11.8 2.2,-10.4c0.7,1.1 0.9,1 0.9,-0.4c0,-0.9 -0.5,-1.7 -1.1,-1.7c-0.6,0 -0.7,-0.5 -0.2,-1.3c0.8,-1.3 0.9,-1.8 1.1,-6c0.1,-1.6 0.5,-2.6 1,-2.4c1,0.7 0.3,-32.8 -0.9,-39.3c-0.6,-3 -1.2,-6.6 -1.5,-8c-2.2,-11.8 -8.1,-27.8 -14.4,-39.5c-3.6,-6.6 -3.8,-7.5 -3.3,-13.5c0.6,-8.2 -1.2,-14.4 -4.5,-14.8c-1.2,-0.2 -2.2,0.1 -2.2,0.6c0,0.5 -1.1,1.7 -2.4,2.6c-2.4,1.5 -2.6,1.4 -12.8,-8.7c-12,-11.9 -24.5,-21 -37.8,-27.7c-10.3,-5.1 -24.3,-10.2 -33,-12c-4.7,-0.9 -5.7,-1.5 -7.1,-4.3c-2.1,-4.2 -5.5,-4.8 -6.9,-1.3zm8.8,9c2.9,4.6 9,12.8 13.6,18.3c4.6,5.4 8.8,10.9 9.5,12c1.4,2.8 1.4,6.5 -0.1,9.8c-2.1,4.6 0.3,4 4.9,-1.3c3.9,-4.5 5,-5.2 8.1,-5.2c4.6,0 12.2,3.4 12.2,5.4c0,0.8 -0.5,2.7 -1,4.2c-0.7,1.8 -0.7,3 0,3.9c0.8,0.9 0.8,1.5 0,2c-2.8,1.7 1.4,2.1 18.6,1.8c18.9,-0.4 20.9,-0.8 25.1,-4.6c1.3,-1.1 2.5,-1.8 2.8,-1.5c1.4,1.3 2.2,10.3 1.3,13.7c-1.4,5.2 -1.7,5.3 -4.6,3.3c-5.2,-3.7 -9.3,-5.3 -15.7,-6.1c-6.4,-0.7 -6.4,-0.7 -9.5,2.6c-2.8,2.9 -3.2,4 -3.4,9.8c-0.1,3.6 -0.7,7 -1.4,7.7c-1.9,1.9 -9.6,2.5 -14.5,1.1c-3.4,-1 -5.3,-2.3 -7.4,-5.3c-1.5,-2.1 -3.7,-4.4 -4.9,-5c-1.8,-1 -2.5,-0.8 -4.7,1.4c-2.1,2.1 -3.5,2.6 -6.9,2.5c-5.3,-0.2 -15.5,4.7 -24.9,11.9c-8.5,6.4 -8.1,6.2 -16.1,8.2l-6.9,1.7l-5.5,-6.4c-5.6,-6.6 -12.6,-16.5 -15.5,-21.8c-1,-1.9 -2.6,-3.1 -4.1,-3.3c-2.2,-0.3 -2.7,0.3 -4.2,5.1c-2.8,9 -1.9,23.7 1.8,28.5c1.8,2.4 -6.6,0.2 -9.4,-2.4c-2.1,-2 -2.3,-2.7 -1.3,-4.3c0.9,-1.5 0.9,-2.6 0.1,-4.9c-0.9,-2.4 -0.9,-3.6 0.2,-5.6c0.9,-1.8 1,-2.9 0.3,-3.8c-2,-2.5 -2.5,-8.4 -0.8,-9.8c0.8,-0.7 1.5,-2.3 1.5,-3.6c0,-4 2.7,-4.4 13,-1.7c12.7,3.4 36.5,3.8 47.8,0.9c4,-1 7.1,-2.3 7,-2.8c-0.2,-0.6 -4.2,-2.5 -8.8,-4.2c-15,-5.7 -24.1,-11.2 -30.7,-18.6c-2.9,-3.2 -8.7,-12 -8.2,-12.4c0.2,-0.2 4,0.5 8.4,1.4c10.2,2.3 29.5,4.9 30,4c0.3,-0.4 -0.5,-2.7 -1.7,-5.1c-2.6,-5.5 -3.5,-17.6 -1.8,-24.8c0.6,-2.8 1.5,-5.1 1.8,-5.1c0.4,0.1 3.1,3.9 6,8.4zm-11.8,2.7l0,6.1l-5.2,-4.2c-6.8,-5.4 -7.8,-4.5 -7.9,7.8c0,5.1 -0.4,9.2 -0.7,9.2c-0.4,0 -1.7,-0.3 -2.9,-0.6c-2.1,-0.6 -2.3,-1.2 -2.3,-8.8c-0.1,-9.4 -1.6,-12.9 -4.7,-10.5c-3.6,2.9 -16,15.6 -19.9,20.4c-4.8,6 -11.4,15.3 -11.4,16.1c0,0.3 -1.1,2 -2.4,3.7c-4.1,5.6 -10.8,20.4 -10.2,22.5c0.4,1.2 2.6,2.6 6,3.7c4.1,1.4 5.5,2.4 6.4,4.7c1.2,3.3 1.1,3.3 -6.7,1.2c-9.1,-2.6 -10.3,-1.9 -12.9,7.3c-1.2,4.3 -2.4,9.5 -2.6,11.6c-0.3,2.1 -1,4.4 -1.5,5.1c-0.6,0.7 -1.4,3.3 -1.7,5.7c-0.3,2.4 -0.9,6.6 -1.4,9.2c-0.6,2.6 -1,6.8 -1,9.2c0,4.6 -0.7,5.3 -4,3.5c-1.3,-0.7 -1.7,-1.8 -1.5,-3.7c0.2,-1.6 0.6,-5.1 0.9,-7.8c1.3,-11.7 5.3,-30.2 8.2,-37.6c1,-2.5 1.5,-5.3 1.1,-6.2c-0.3,-0.9 -4.3,-3.5 -8.9,-5.8c-11.1,-5.5 -22.4,-12.2 -23.8,-14c-0.3,-0.3 -2,-1.4 -3.9,-2.3l-3.3,-1.8l-3.5,3.9c-2,2.1 -6.2,7.8 -9.5,12.6c-12.8,19 -20.2,39.4 -22.7,62.7c-1.1,10.7 -2,10.4 26.5,10.1c24.5,-0.3 26.7,0.1 25.7,3.9c-0.5,1.9 -1.5,2 -25.2,2c-17.9,0 -25,0.3 -25.9,1.2c-0.7,0.7 -1.2,3.4 -1.2,6.2c0,5.7 3,23.9 4.1,24.6c0.4,0.3 1,2.3 1.4,4.5c0.4,2.2 1.1,4.4 1.5,5c0.4,0.5 1.7,4 3,7.7c2.1,6.2 2.2,6.7 0.7,8.3c-0.9,0.9 -2.1,1.4 -2.6,1c-1.9,-1.1 -10.4,-26.5 -11.8,-35.3c-0.5,-2.6 -0.8,-14.8 -0.8,-27.2c0,-29.1 1.7,-37.3 13.3,-63c0.9,-1.9 2.8,-5.4 4.4,-7.7c1.5,-2.3 2.8,-4.6 2.8,-5.1c0,-0.4 1.5,-2.6 3.4,-4.8c1.8,-2.1 3.4,-4.2 3.5,-4.7c0.1,-0.8 2.2,-3.3 5.8,-7.1c1.3,-1.3 2.3,-2.8 2.3,-3.4c0,-0.6 1.3,-1.9 2.9,-2.8c1.7,-1 2.8,-2.1 2.6,-2.4c-0.2,-0.3 0.9,-1.4 2.6,-2.4c1.6,-0.9 2.9,-2.1 2.9,-2.6c0,-0.5 1.2,-1.6 2.8,-2.4c1.5,-0.8 4,-2.6 5.7,-4.1c2.7,-2.6 13.4,-9.9 14.5,-10c0.3,0 2.6,-1.2 5.2,-2.8c2.6,-1.5 5.2,-2.7 5.8,-2.7c0.7,0 2.4,-0.6 3.8,-1.4c7.3,-3.8 18.1,-7.5 23.6,-8.2c2.2,-0.2 4.4,-0.8 5,-1.3c0.6,-0.5 1.9,-0.7 2.9,-0.6c0.9,0.2 2.9,0 4.5,-0.5c1.5,-0.5 10.7,-0.9 20.5,-0.9l17.7,-0.1l0,6.1zm26,-0.4c1.4,0.7 3.3,1.3 4.3,1.3c0.9,0 2.5,0.4 3.5,0.9c0.9,0.4 3.3,1.5 5.2,2.3c8,3.4 17.6,8.4 19.4,10c1.1,1 2.4,1.8 2.8,1.8c0.8,0 4.8,2.7 12.7,8.7c4.4,3.4 9.3,7.8 12.5,11.2c6.7,7.3 7.6,8.4 7.3,8.8c-0.8,0.7 -19.7,0.9 -19.7,0.2c0,-0.5 1.1,-1.6 2.5,-2.5c5,-3.2 3,-6.4 -11,-17.6c-8.6,-7 -22.2,-14.3 -33,-17.9c-3.3,-1.1 -6.8,-2.4 -7.7,-3c-1,-0.5 -2.6,-0.9 -3.5,-0.9c-2.9,0 0.5,2.6 5.8,4.3c14.6,4.9 30.5,13.9 43.1,24.3c4.3,3.6 7.8,6.7 7.8,6.8c0,1.3 -11.3,7.6 -13.5,7.6l-2.8,0l0.6,-5.9c0.6,-5.7 0.5,-6.1 -2.1,-7.9c-6.4,-4.5 -14.4,-5.4 -18.5,-2.2c-3,2.4 -4.1,2.5 -3.3,0.4c0.8,-2.1 -0.8,-5 -5.4,-9.9c-6.6,-7.1 -17,-20.5 -17,-22c0,-1.6 5.9,-1 10,1.2zm-47,9.3l0,9l-2.7,-0.7c-9.6,-2.6 -11.6,0.6 -5.8,9.3c1.9,3 4.7,6.4 6,7.6c2.3,2 2.5,2.8 2.5,11.9l0,9.7l-4.2,-0.5c-4.6,-0.6 -13.2,-2.5 -18.5,-4.1c-4.4,-1.4 -9.7,1.2 -10.1,5c-0.2,1.4 -1,3.2 -1.8,3.8c-0.8,0.7 -1.4,2 -1.4,3c0,1.6 -0.3,1.6 -4.5,0.2c-2.5,-0.8 -4.5,-1.7 -4.5,-2.1c0,-1.3 10.1,-20.5 13.7,-25.9c7.5,-11.5 27.9,-34.9 30.6,-35.1c0.4,-0.1 0.7,4 0.7,8.9zm22.2,5.5c0.6,2.2 1.6,4.6 2.2,5.4c0.9,1.2 0.5,1.3 -2.9,0.8c-2.2,-0.4 -5.7,-0.7 -7.7,-0.7l-3.8,0l0,-10.2l0,-10.2l5.5,5.4c3.7,3.6 6,6.9 6.7,9.5zm-16.2,26.7c1.6,1.1 2.7,2.5 2.4,3c-0.3,0.5 -0.5,3.3 -0.5,6.3c0,5.4 -0.1,5.5 -3,5.5l-2.9,0l0,-8.5c0,-4.7 0.2,-8.5 0.5,-8.5c0.3,0 1.9,1 3.5,2.2zm20.4,10.4c1.4,0.3 2.8,1 3.1,1.4c0.7,1.2 -1.8,1.8 -11.2,2.5l-8.3,0.7l0,-6l0,-6.1l6.9,3.4c3.7,1.9 8,3.7 9.5,4.1zm-94.6,12.2c6,2.8 9.2,4.9 8.8,5.7c-4.2,11 -10.5,40 -10.6,49c0,2.4 -0.7,3.3 -3.2,4.5c-3.1,1.5 -4.1,2.7 -5.2,6.2c-0.5,1.7 -2.7,1.8 -26.6,1.8l-26.1,0l0.5,-6.5c2.2,-26.9 13.8,-54.9 31,-74.5l3.1,-3.5l9.5,6.4c5.2,3.5 13.7,8.4 18.8,10.9zm181.5,-6.6c4.9,1.9 15.7,21.3 21.3,38.4c2,6.3 6.3,29.2 6.4,34.1c0,1 -6.2,1.3 -27.9,1.3l-27.9,0l0.5,-5.8c0.3,-3.5 -0.1,-7.3 -0.9,-9.7c-1.1,-3.4 -1.8,-4 -4.1,-4c-1.5,0.1 -2.6,-0.4 -2.5,-1c0.5,-2.5 -3,-20.2 -5.8,-30.1c-1.7,-5.6 -5,-11.2 -3.9,-6.4c0.3,1.4 1,4.1 1.5,6c1.6,6.1 4.1,16.4 4.5,18.5c0.2,1.1 0.6,4 1,6.5c0.3,2.5 0.8,5.4 1.1,6.6c0.4,1.5 -0.2,2.3 -2.2,3.2c-1.4,0.7 -2.8,1.1 -2.9,1c-0.3,-0.4 -3.7,-20.5 -4,-23.3c-0.1,-1.1 -0.4,-2.7 -0.7,-3.5c-1.8,-4.8 -5.8,-17.9 -5.8,-18.8c0,-0.6 1,-1.6 2.1,-2.3c1.9,-1 2.6,-0.6 6,2.9c2.1,2.3 5.1,4.8 6.8,5.6c5.5,2.9 18.3,1.4 20.6,-2.4c0.4,-0.7 0.9,-4.1 1,-7.5c0.2,-4.8 0.7,-6.8 2.5,-8.8c2,-2.3 2.9,-2.6 6.4,-2.1c2.3,0.3 5.3,1 6.9,1.6zm-124.5,13.8c3.9,5.8 10.5,14.3 14.7,19c7.9,8.9 9.7,13.1 7.6,17.6c-1.3,3 -1.4,5.4 -0.2,5.4c0.5,0 2.5,-2.3 4.5,-5c3.5,-4.9 3.7,-5 8.8,-5c3.5,0 6.4,0.7 8.6,2c3.5,2.2 3.7,2.6 2.2,6.5c-0.7,1.8 -0.7,3.3 0,4.6c0.7,1.3 0.7,1.9 0,1.9c-0.5,0 -1,0.4 -1,1c0,0.6 6.7,1 18.3,1c15.7,0 18.8,-0.3 22.3,-1.9c2.3,-1.1 4.7,-2.7 5.2,-3.8c1,-1.6 1.2,-1.6 2.1,1c1.5,3.8 1.3,12.7 -0.3,15.5c-1.1,2.1 -1.4,2.2 -2.6,0.7c-2.4,-2.9 -9.2,-5.7 -16.2,-6.7l-6.8,-0.9l-3.3,3.4c-2.9,3.1 -3.2,4.1 -3.3,9.6c0,7.5 -1.4,9.2 -8.2,9.9c-5.1,0.4 -14.2,-2.6 -14.2,-4.8c0,-0.6 -1.6,-2.6 -3.6,-4.6l-3.7,-3.5l-2.9,2.7c-2.1,2.1 -3.7,2.8 -6.6,2.7c-5,-0.2 -17.8,6 -26.9,12.9c-5.7,4.4 -8.6,5.9 -14.3,7.3l-7.1,1.7l-3.7,-4.2c-6,-6.9 -14.1,-18.1 -16.9,-23.3c-2.1,-3.8 -3.1,-4.7 -5.3,-4.7c-3.3,0 -4.9,3.9 -5.7,14c-0.6,6.9 1,17.5 2.9,18.6c1.9,1.2 0.5,1.9 -3.1,1.6c-5,-0.5 -7.8,-3.3 -6.4,-6.4c0.6,-1.5 0.6,-3.1 -0.1,-5c-0.7,-2 -0.6,-3.3 0.4,-5.2c0.9,-1.8 1,-2.9 0.3,-3.8c-0.6,-0.7 -1.4,-3.2 -1.8,-5.5c-0.5,-3.4 -0.4,-4.4 0.9,-4.9c0.9,-0.3 1.6,-1.6 1.6,-2.9c0,-4.5 2.2,-4.9 12.2,-2.4c8.2,2.1 11.5,2.4 27.8,2.3c18.5,0 26.8,-1.3 27.7,-4.1c0.2,-0.6 -2.5,-2 -6.4,-3.3c-10.8,-3.4 -23,-9.9 -29,-15.4c-5.2,-4.7 -13,-15.2 -12.1,-16.2c0.3,-0.2 2,0.1 3.9,0.7c5,1.5 34.9,5.5 34.9,4.7c0,-0.2 -0.9,-2.2 -1.9,-4.4c-3.6,-7.3 -4.5,-15.7 -2.6,-24.1c0.9,-4.1 1.8,-7.3 2,-7.1c0.1,0.2 3.5,5 7.3,10.8zm141.1,-5.1c1.3,1.8 3.6,6.2 5.2,9.7c3.1,6.9 10.1,26.4 9.4,26.4c-0.3,0 0,1.1 0.5,2.5c0.5,1.4 1.3,4.6 1.7,7.2c1.1,7.2 0.6,44.4 -0.7,51c-0.6,3.2 -1.3,6.9 -1.6,8.3c-1.3,6.4 -6.8,20.9 -11.5,30.2c-2.9,5.7 -5.5,10.5 -5.8,10.8c-0.3,0.3 -2.2,3 -4.2,6c-6.4,9.6 -17.9,21.9 -28,29.5c-3.5,2.7 -6.8,5.3 -7.4,5.7c-8.8,6.8 -22.5,13.5 -39,19c-15,4.9 -21,5.9 -41.1,6.5c-14.6,0.4 -17.3,0.2 -28,-2.1c-14.2,-3.1 -23.5,-5.7 -28.9,-8c-17.2,-7.5 -33.7,-17.8 -41.8,-26l-2.9,-3l4.4,-2.2c2.4,-1.3 5.4,-2.3 6.8,-2.4l2.4,0l-2.2,1.6c-3,2 -2.8,2.7 1.5,7c3.6,3.4 16.6,12.4 18,12.4c0.4,0 1.4,0.6 2.2,1.3c0.9,0.7 4.1,2.4 7.1,3.7c3,1.3 7.8,3.4 10.5,4.6c2.8,1.2 6.4,2.5 8,2.9c1.7,0.4 3.7,0.9 4.5,1.2c0.8,0.3 2.2,0.6 3,0.7c0.8,0.1 3.2,0.5 5.3,1c2.6,0.6 4.2,0.4 5.2,-0.4c2.1,-1.7 2,-2 -2.1,-6.5c-1.9,-2.2 -5,-5.7 -6.7,-7.8c-1.8,-2.2 -3.6,-4.4 -4.2,-5.1c-2.5,-2.9 -11.4,-16.5 -13.4,-20.6c-3.7,-7.2 -6.9,-11 -8.9,-10.3c-1.3,0.4 -1.3,0.2 0.3,-1c1.1,-0.9 2.6,-1.7 3.3,-1.7c0.6,0 1.2,-0.4 1.2,-0.9c0,-0.9 8.8,-4.1 11.4,-4.1c3,0 1.6,1.9 -1.9,2.6c-4.9,0.9 -5.2,3.3 -1.6,10.7c3.5,6.9 9.5,16.7 10.9,17.6c0.5,0.3 1.4,1.5 2,2.7c2.2,4.3 19.4,23.1 23.5,25.8c2.7,1.8 2.8,1.8 4.2,0c1.2,-1.5 1.4,-7 1.5,-28l0,-26.1l2.5,-2.3c2.1,-2 2.5,-3.3 2.5,-8.2c0,-5.8 0.6,-6.8 2.8,-4.6c0.7,0.7 2.9,1.1 5,1c2.2,-0.2 5,0.2 6.4,0.7c1.3,0.5 4,0.6 5.9,0.2c3.3,-0.8 3.3,-0.8 0.9,-1.5c-1.4,-0.3 -5.9,-1 -10,-1.4c-6.6,-0.6 -7.5,-0.9 -7.5,-2.7c0,-1.7 0.6,-2 3.5,-1.7c5.8,0.5 13.4,3 15.8,5.2c1.2,1.1 2.2,1.7 2.2,1.3c0,-0.4 0.4,-0.3 0.8,0.3c1,1.4 7.9,4.5 9.4,4.3c0.7,-0.1 2,0 2.8,0.4c3.4,1.2 10.3,2.5 11.5,2.1c0.7,-0.3 2.1,-3.1 3.1,-6.2c1,-3.1 2.3,-6 2.9,-6.4c0.5,-0.4 0.7,-0.8 0.4,-0.8c-0.4,0 0.2,-2.8 1.3,-6.3c4.1,-12.7 7.4,-31.2 8,-44.5c0.3,-7.9 -0.5,-8.6 -11.4,-8.3c-5.8,0.2 -7.8,-0.1 -7.9,-1.1c0,-0.7 -0.2,-2.3 -0.3,-3.6c-0.3,-2.2 0.4,-2.8 1.8,-1.5c1,1 15.8,0.3 17.2,-0.8c1.4,-1.1 8.8,2.3 7.7,3.6c-0.4,0.5 0.4,0.1 1.9,-0.8c2.3,-1.4 6.3,-1.6 30.9,-1.6c23.3,-0.1 28.5,-0.3 29.7,-1.5c1.5,-1.4 1.3,-4.1 -1.3,-22.6c-1.4,-9.9 -9.4,-31.7 -13.3,-36.3c-0.8,-0.9 -1.2,-1.7 -0.8,-1.7c0.4,0 -0.7,-2 -2.4,-4.5l-3.1,-4.5l3.3,0.2c2.5,0.2 3.9,1.2 5.7,3.7zm-166.2,9.1c1.3,0 1.9,3.6 1.4,9.8c-0.1,1.9 0.3,4 1,4.8c0.9,1.1 0.7,1.4 -1.4,1.4c-2.4,0 -17.9,-2.9 -18.5,-3.5c-0.3,-0.3 3.6,-14.4 4.4,-15.6c0.2,-0.4 2.9,0.2 6,1.2c3.2,1.1 6.3,1.9 7.1,1.9zm102.2,21.8c1,5.3 2.2,12.1 2.6,14.9l0.7,5.3l-12.9,0.1c-7,0 -14,0.2 -15.5,0.4c-3.2,0.4 -3.8,-1.2 -2.6,-6.9c1,-4.6 0,-6.2 -5.9,-8.8c-5.9,-2.6 -11.7,-2.6 -15.3,0.1l-3,2.2l0,-2.9c0,-1.6 -0.9,-4.1 -2.1,-5.6c-2.6,-3.3 -2,-4.2 3.2,-5c5.3,-0.8 10,-3.3 17.4,-9c3.3,-2.6 7.1,-4.9 8.5,-5.3c6.4,-1.4 16.3,-4.3 16.9,-4.8c0.9,-0.9 5.8,14.7 8,25.3zm-119.4,1.8c3.6,6.6 14.1,15.3 24.9,20.5c5.6,2.7 10.9,4.9 11.9,4.9c0.9,0 1.7,0.4 1.7,1c0,0.5 -0.8,1 -1.7,1.1c-1,0 -2.7,0.3 -3.8,0.5c-5,1.3 -30.5,0.5 -36.9,-1.2l-2.8,-0.7l0.7,-7.1c0.3,-3.9 1.1,-9.1 1.6,-11.5c0.5,-2.4 1,-5.9 1.1,-7.7c0.2,-4.3 0.9,-4.3 3.3,0.2zm119.9,29.3c1.6,0.3 3.1,1.2 3.4,1.8c0.3,1 -1.7,1.3 -7.7,1.3c-7.9,0 -8.1,-0.1 -6.9,-2c1.3,-2.1 5.1,-2.5 11.2,-1.1zm-126.9,8.3c3.7,6.2 11.7,16.8 20.2,26.6c5.4,6.3 6.3,7.8 6.3,11.2c0,2.1 -0.5,5.1 -1.2,6.5c-1.7,3.7 0,4.5 2.5,1c1.2,-1.7 3.4,-4.3 5,-5.9c2.5,-2.6 3.2,-2.8 7.4,-2.2c2.5,0.3 6.1,1.5 7.9,2.7c3.3,2 3.3,2.1 2,5.3c-1,2.4 -1.1,3.8 -0.3,5.1c0.7,1.4 0.7,2 -0.1,2.3c-6.8,2.2 28.1,3.2 36.7,1c2.2,-0.6 5.2,-2.1 6.6,-3.4c1.4,-1.3 2.8,-2.4 3,-2.4c0.1,0 0.8,2.2 1.5,4.8c0.8,3.7 0.8,6 -0.1,9.5c-0.6,2.6 -1.3,4.7 -1.5,4.7c-0.1,0 -2.5,-1.4 -5.2,-3.1c-5.4,-3.3 -10.5,-4.8 -16.5,-4.9c-3.1,0 -4.5,0.7 -6.8,3.1c-2.5,2.7 -2.9,3.9 -2.9,9c0,6.9 -1.7,9.2 -7.3,10.3c-6.4,1.2 -11.5,-0.9 -17.3,-7.2l-5.3,-5.7l-2.8,2.8c-2.2,2 -3.9,2.7 -7,2.7c-5.5,0 -15.2,4.5 -23.6,10.9c-8.7,6.5 -10.9,7.6 -19.3,9.7c-8.5,2.1 -20,7.2 -26.5,11.9c-2.7,1.9 -5.5,3.5 -6.2,3.5c-0.7,0 -2.8,-1.5 -4.6,-3.4c-2.5,-2.6 -3.2,-4.1 -2.8,-5.7c0.4,-1.5 -0.2,-3.2 -1.8,-5.1c-2,-2.3 -2.3,-3.4 -1.5,-4.8c0.7,-1.3 0.6,-2.7 -0.2,-4.5c-0.9,-2 -0.8,-3.1 0.2,-5c1,-1.9 1.1,-3.1 0.2,-4.8c-2.1,-4.4 -2.3,-7.5 -0.5,-9.3c1,-0.9 1.6,-2.7 1.5,-3.8c-0.4,-3.5 2.9,-4.8 8,-3.1c11.8,3.9 33.4,5.6 45.9,3.6c8.9,-1.5 14.1,-3.1 13.7,-4.3c-0.2,-0.6 -3.4,-2.2 -7,-3.4c-17.4,-5.9 -30.8,-15.3 -38,-26.9l-3,-4.8l2.9,0.6c2.6,0.6 14.9,2.6 29.3,4.7c3.5,0.5 6.6,0.7 6.9,0.4c0.3,-0.2 -0.5,-2.5 -1.8,-5.1c-2.9,-6 -3.8,-16.3 -2.1,-24.3c0.7,-3.3 1.5,-6 1.9,-6c0.3,0 2,2.4 3.6,5.2zm-19,6.5c1,1.4 1,2.1 -0.2,4c-0.9,1.4 -1.2,3 -0.8,4c0.4,1 0.9,3.9 0.9,6.6c0.2,3.8 -0.1,4.6 -1.3,4.3c-5,-1.4 -19.6,-3.6 -20.9,-3.1c-4.1,1.5 3.2,13.7 13.2,22.1c6,5 21.6,13.4 24.9,13.4c0.9,0 1.7,0.6 1.7,1.4c0,3.5 -31.5,3.3 -45.4,-0.3c-4.4,-1.2 -8.7,-2.1 -9.7,-2.1c-4,0 -11.9,-27.3 -13.5,-46.5l-0.4,-5.5l25.1,0c22.6,0 25.3,0.2 26.4,1.7zm104,0.5c2.8,6.2 19.7,8.8 25,3.8c1.4,-1.3 2.5,-3.2 2.5,-4.2c0,-1.6 1,-1.8 9.1,-1.8l9.1,0l-0.7,9.7c-0.4,5.4 -0.8,10 -1,10.3c-0.2,0.3 -0.6,2.7 -0.9,5.5c-0.4,2.7 -1.2,7 -1.7,9.5c-0.6,2.5 -1.3,5.5 -1.5,6.8c-0.3,1.2 -2.3,7.8 -4.5,14.6l-4,12.4l-4.7,-1.5c-2.6,-0.7 -6.8,-1.9 -9.4,-2.4l-4.8,-1.1l1.5,-2.8c2.7,-5.3 1.3,-19.1 -2.1,-20.4c-0.9,-0.4 -2.8,0.4 -4.5,1.9c-3.7,3.1 -8.8,4.5 -16.1,4.5l-5.8,0l0,-23.1c0,-12.6 0.3,-22.8 0.8,-22.6c0.4,0.3 1.6,0.1 2.7,-0.4c1.1,-0.4 3.8,-0.8 6,-0.8c3.2,-0.1 4.2,0.3 5,2.1zm-16.6,22.3l0.2,22.5l-3,0l-3,0l-0.3,-22c-0.3,-20.1 -0.2,-22 1.4,-22c0.9,0 2,-0.5 2.3,-1c1.8,-2.9 2.3,2 2.4,22.5zm-7.9,1.6l0,21l-3.7,-0.3l-3.8,-0.3l0.2,-5.5c0.3,-5.5 0.2,-5.6 -3.7,-8.2c-5.9,-3.7 -12.2,-4.5 -16.6,-1.9c-3.2,1.9 -3.4,1.9 -3.4,0.2c0,-1 -1.1,-3.5 -2.5,-5.5l-2.4,-3.6l2.4,0c3.8,0 13.4,-3.9 16.8,-7c4.3,-3.7 13.9,-9.9 15.5,-9.9c0.9,-0.1 1.2,4.8 1.2,21zm137.3,32.4c-0.3,0.9 -0.8,1.4 -1,1.1c-0.3,-0.3 -0.2,-0.9 0.2,-1.5c0.9,-1.6 1.5,-1.3 0.8,0.4zm-2,4.2c-0.9,2.5 -6.3,11 -6.3,10c0,-0.4 1,-2.4 2.3,-4.5c1.3,-2 2.6,-4.5 3,-5.5c0.3,-0.9 0.9,-1.7 1.1,-1.7c0.3,0 0.2,0.8 -0.1,1.7zm-158.3,7.4c0,0.5 -0.3,0.9 -0.7,1c-0.5,0 -2,0.3 -3.5,0.5c-3.4,0.6 -3.7,-1.3 -0.5,-2.5c2.4,-0.9 4.7,-0.4 4.7,1zm-8.3,2.5c-0.3,0.3 -1.2,0.4 -1.9,0.1c-0.8,-0.3 -0.5,-0.6 0.6,-0.6c1.1,-0.1 1.7,0.2 1.3,0.5zm10.8,1.4c1.6,2.6 8.6,5 14.5,5l6,0l0,26c0,14.3 -0.3,26 -0.7,26c-0.4,0 -4.8,-4.2 -9.8,-9.4c-9.8,-10.1 -19.3,-22.8 -26.7,-35.9l-4.7,-8.2l3.7,-0.7c2,-0.4 6.2,-1.4 9.2,-2.2c7,-1.8 7.7,-1.8 8.5,-0.6zm147.8,2.5c-0.3,0.9 -0.8,1.4 -1,1.1c-0.3,-0.3 -0.2,-0.9 0.2,-1.5c0.9,-1.6 1.5,-1.3 0.8,0.4zm-167.2,24.8c6.2,9.1 13.6,18.6 18.5,23.4c2.3,2.4 4,4.3 3.7,4.3c-0.3,0 -4.3,-0.9 -8.9,-2c-17.9,-4.4 -33.2,-11.4 -48.1,-22.2c-4.6,-3.3 -8.3,-6.1 -8.3,-6.3c0,-0.7 10.3,-6.8 20.5,-11.8l10.9,-5.6l3.8,7c2.1,3.8 5.6,9.8 7.9,13.2zm161.5,-17.5c-1.7,1.6 -1.8,1.6 -0.5,-0.5c0.7,-1.2 1.5,-2 1.8,-1.7c0.3,0.2 -0.3,1.2 -1.3,2.2zm-3.8,5.1c-1.3,1.7 -2.7,3 -3.1,3c-0.5,0.1 0.2,-1.2 1.5,-2.8c1.3,-1.7 2.7,-3 3.1,-3c0.5,-0.1 -0.2,1.2 -1.5,2.8zm-8.9,9.6c-2.9,3 -5.4,5.3 -5.7,5.1c-0.5,-0.6 9.1,-10.6 10.2,-10.6c0.4,0 -1.6,2.5 -4.5,5.5zm-13.9,11.9c0,0.7 -9.7,7.6 -10.6,7.6c-0.5,0 1.6,-1.8 4.6,-4c5.7,-4.1 6,-4.3 6,-3.6zm-16,11.1c-0.7,0.9 -1.5,1.3 -1.9,1c-0.3,-0.3 0.1,-1 0.9,-1.5c2.1,-1.4 2.4,-1.2 1,0.5zm-3.5,1.5c-0.4,0.6 -2.5,2 -4.8,3.1c-4.9,2.5 -4.3,1.5 1.1,-1.7c4.4,-2.7 4.5,-2.7 3.7,-1.4zm-11,6c-0.3,0.5 -1.4,1 -2.3,1c-1.5,0 -1.5,-0.2 -0.2,-1c2,-1.3 3.3,-1.3 2.5,0zm-14.8,5.6c-0.3,0.3 -1.2,0.4 -1.9,0.1c-0.8,-0.3 -0.5,-0.6 0.6,-0.6c1.1,-0.1 1.7,0.2 1.3,0.5z"/>
  <path d="m393.80209,191.99238c1.4,1.1 3.1,2 3.8,2.1c0.6,0.1 1.7,0.2 2.2,0.3c0.6,0 1.5,0.8 2,1.6c0.7,1.1 1,1.1 1,0.2c0,-1.3 3,-1.3 4,-0.1c0.3,0.4 1.1,0.1 1.7,-0.7c1.1,-1.1 0.6,-1.4 -2.5,-1.9c-2,-0.3 -6.2,-1.2 -9.2,-2c-5.5,-1.4 -5.5,-1.4 -3,0.5z"/>
  <path d="m429.80209,191.89238c0,0.5 2.1,1.9 4.6,3.1c3.5,1.8 5,3.3 6.7,6.9c2.7,5.7 2.6,5.6 3.3,4.8c1.1,-1.1 -3.4,-9.4 -6.2,-11.3c-4,-2.7 -8.4,-4.5 -8.4,-3.5z"/>
  <path d="m414.40209,195.99238c0.7,0.7 1.9,0.7 3.5,0.1c2.3,-0.9 2.2,-1 -1,-1c-2.4,-0.1 -3.2,0.2 -2.5,0.9z"/>
  <path d="m433.80209,202.99238c0,0.5 0.5,1 1,1c0.6,0 1,-0.5 1,-1c0,-0.6 -0.4,-1 -1,-1c-0.5,0 -1,0.4 -1,1z"/>
  <path d="m457.80209,207.49238c-0.7,0.8 -1.6,1.2 -2.1,0.9c-0.5,-0.3 -0.9,0.1 -0.9,0.9c0,1 -0.9,1.3 -2.7,1.1c-2.7,-0.2 -2.7,-0.2 -0.9,1.2c3,2.1 4,1.7 6.9,-2.9c1.9,-2.9 1.7,-3.6 -0.3,-1.2z"/>
  <path d="m444.20209,217.59238c-0.9,2.7 -0.8,3.2 0.1,2.4c1.5,-1.3 2.6,-4.8 1.6,-5.4c-0.4,-0.3 -1.1,1.1 -1.7,3z"/>
  <path d="m471.80209,217.89238c-0.7,1.3 -1.1,1.3 -2.4,0.2c-1.3,-1.1 -2,-1 -4.3,0.4l-2.7,1.8l3.8,3.3c5.5,4.8 9.4,5.3 15.1,1.9c4,-2.3 7.6,-6.8 6.4,-7.9c-0.2,-0.2 -3.7,-0.6 -7.7,-0.8c-5.8,-0.3 -7.5,-0.1 -8.2,1.1zm-2.8,3.1c0.2,0.7 1.3,0.7 3.5,0c1.7,-0.6 4.7,-1 6.6,-0.8c3.3,0.3 3.5,0.4 2.1,2.2c-2,2.8 -9.8,2.7 -12.7,-0.2c-1.2,-1.2 -1.6,-2.2 -1,-2.2c0.6,0 1.3,0.5 1.5,1z"/>
  <path d="m425.10209,228.29238c-3,0.9 -4.7,3.7 -2.2,3.7c0.5,0 0.7,-0.5 0.4,-1c-0.3,-0.6 -0.1,-1 0.4,-1c0.6,0 1.1,0.4 1.1,0.8c0,0.5 0.7,0.9 1.5,0.9c0.8,0 1.3,-0.3 1,-0.5c-0.3,-0.3 0,-1.1 0.7,-1.9c1.5,-1.9 0.8,-2.1 -2.9,-1z"/>
  <path d="m430.60209,227.69238c0.7,0.3 1.6,0.2 1.9,-0.1c0.4,-0.3 -0.2,-0.6 -1.3,-0.5c-1.1,0 -1.4,0.3 -0.6,0.6z"/>
  <path d="m385.80209,228.99238c-0.9,0.6 -1,1 -0.3,1c0.6,0 1.5,-0.5 1.8,-1c0.8,-1.2 0.4,-1.2 -1.5,0z"/>
  <path d="m395.00209,229.89238c-0.9,0.5 -0.5,1.1 1.3,1.9c1.4,0.7 2.3,1.7 2,2.2c-0.3,0.6 -0.2,1 0.4,1c0.5,0 0.8,-1.1 0.7,-2.5c-0.3,-2.7 -1.6,-4.7 -1.6,-2.4c0,1 -0.2,1.1 -0.8,0.2c-0.4,-0.7 -1.3,-0.9 -2,-0.4z"/>
  <path d="m418.30209,229.99238c-0.4,0.6 -1.1,0.8 -1.6,0.4c-0.6,-0.3 -0.5,0.3 0.3,1.5c1.2,2 1.4,2 2.6,0.4c0.6,-0.9 1.2,-2 1.2,-2.5c0,-1.1 -1.8,-1 -2.5,0.2z"/>
  <path d="m465.80209,229.39238c0,0.3 0.9,1 2,1.6c1.1,0.6 2,0.8 2,0.6c0,-0.3 -0.9,-1 -2,-1.6c-1.1,-0.6 -2,-0.8 -2,-0.6z"/>
  <path d="m401.50209,230.59238c-2.3,2.4 5.6,3.4 8.6,1.1c1.5,-1 1.3,-1.2 -1.8,-1.1c-1.9,0.1 -3.8,0.4 -4.2,0.8c-1,1 -2.5,0.7 -1.8,-0.4c0.7,-1.1 0.2,-1.3 -0.8,-0.4z"/>
  <path d="m480.80209,231.89238c0,0.6 -1.7,1.2 -3.7,1.4l-3.8,0.4l3.8,0.1c2.2,0.1 3.7,0.7 3.7,1.4c0,0.9 0.4,0.8 1,-0.2c1.3,-2 1.3,-4 0,-4c-0.5,0 -1,0.4 -1,0.9z"/>
  <path d="m372.30209,166.79238c-4.8,0.8 -19,4.5 -20.4,5.2c-0.9,0.5 -6.5,3.2 -12.6,6c-6,2.9 -11.2,5.5 -11.5,5.9c-0.3,0.4 -2.3,1.8 -4.5,3.1c-4.7,2.8 -5.1,3.1 -13.3,10.6c-3.4,3.1 -6.2,6.2 -6.2,6.8c0,1.3 5.7,6.6 7,6.6c0.5,0 1.5,0.6 2.2,1.3c1.9,1.9 15.5,9.9 21.6,12.6c3.2,1.5 5.6,2.1 6.1,1.5c0.5,-0.5 3.5,-5.9 6.6,-11.9c6.4,-12.4 11,-20.1 14.9,-24.8c1.4,-1.8 4.2,-5.3 6.1,-8c2,-2.6 4,-4.7 4.6,-4.7c0.5,0 1.4,-1 1.9,-2.3c0.5,-1.2 1.8,-3.3 2.7,-4.7l1.8,-2.5l-2.5,2c-10.1,8 -25.2,29.5 -33.5,47.5c-1.6,3.6 -3,6.7 -3.2,6.9c-0.8,1.4 -20.1,-8.8 -29.7,-15.8l-4.9,-3.5l5.7,-5.2c15.6,-14.3 37.4,-25 62.9,-30.8c4.8,-1.1 3.3,-2.7 -1.8,-1.8z"/>
  <path d="m346.30209,262.09238c1.6,2.5 16,6.6 17.1,4.8c0.7,-1.1 -0.6,-1.6 -6,-2.3c-2.7,-0.4 -6.4,-1.3 -8.3,-2.1c-1.8,-0.8 -3.1,-1 -2.8,-0.4z"/>
  <path d="m384.80209,263.89238c0,0.5 1.1,1.2 2.5,1.5c3.5,0.9 9.2,6.9 10,10.5c0.4,1.7 1.1,3.1 1.6,3.1c1.4,0 1.1,-1.7 -1,-5.8c-2.2,-4.2 -4.3,-6.3 -8.8,-8.6c-3.7,-1.8 -4.3,-1.9 -4.3,-0.7z"/>
  <path d="m369.10209,267.09238c2.6,1.5 6.6,1.8 7.4,0.6c0.3,-0.6 0.1,-0.7 -0.5,-0.3c-0.6,0.3 -1.3,0.2 -1.7,-0.4c-0.3,-0.5 -2.1,-1 -3.8,-1c-2.8,0.1 -2.9,0.2 -1.4,1.1z"/>
  <path d="m409.90209,281.89238c-0.8,0.5 -2.3,0.8 -3.3,0.6c-1,-0.2 -1.8,0 -1.8,0.6c0,1.5 5.6,1 7,-0.6c1.4,-1.7 0.3,-2 -1.9,-0.6z"/>
  <path d="m399.50209,287.69238c-0.4,0.3 -0.7,1.6 -0.6,2.7c0,1.9 0.1,1.9 1,-0.3c1,-2.4 0.8,-3.6 -0.4,-2.4z"/>
  <path d="m427.30209,288.89238c-0.4,0.7 -1.8,1 -3.4,0.6c-1.6,-0.3 -3.4,0 -4.6,1c-2,1.4 -1.9,1.6 1.5,4.5c5.3,4.5 9.1,5.5 13.2,3.4c4.1,-2.1 8.8,-6.4 8.8,-8.1c0,-0.8 -1.2,-1.3 -2.9,-1.3c-1.5,0 -4.8,-0.3 -7.3,-0.6c-3,-0.4 -4.8,-0.2 -5.3,0.5zm11.5,2.9c0,0.5 -1.8,1.8 -3.9,3c-4.4,2.5 -7.1,2.3 -11.1,-0.8l-2.5,-2l3.1,0.6c1.9,0.4 3.4,0.1 3.8,-0.5c0.8,-1.3 10.6,-1.5 10.6,-0.3z"/>
  <path d="m384.30209,298.99238c-1.1,0.5 -3.7,0.9 -5.7,0.9c-2.1,0.1 -3.8,0.5 -3.8,1.1c0,0.5 -0.6,0.7 -1.3,0.4c-0.9,-0.3 -1.3,0.2 -1.1,1.8c0.4,4.1 0.6,4.3 1.3,1.8c0.5,-2 1.4,-2.6 4.3,-2.8c3.6,-0.3 12.8,-4.2 9.8,-4.1c-0.8,0 -2.4,0.4 -3.5,0.9z"/>
  <path d="m350.30209,301.99238c-1.9,0.8 -1.8,1.1 0.6,1.4c0.7,0 1.5,1 2,2.1c0.9,2.3 1,2.1 1.3,-1.8c0.2,-2.8 -0.5,-3.1 -3.9,-1.7z"/>
  <path d="m360.60209,301.69238c-2.7,0.2 -4.8,0.8 -4.8,1.4c0,0.5 0.6,0.9 1.3,0.9c0.6,0 2.3,0.3 3.6,0.7c1.8,0.4 2.2,0.3 1.6,-0.6c-0.5,-0.9 0,-1.2 1.5,-0.9c1.3,0.2 2.5,-0.3 2.7,-1c0.3,-0.6 0.1,-1.1 -0.4,-1c-0.4,0.1 -2.9,0.3 -5.5,0.5z"/>
  <path d="m435.80209,304.79238c0,1.2 0.4,2.2 0.9,2.2c1,0 0.9,-2.6 -0.2,-3.6c-0.4,-0.4 -0.7,0.2 -0.7,1.4z"/>
  <path d="m428.30209,304.99238c-0.3,0.5 -0.1,1 0.4,1c0.6,0 1.1,-0.5 1.1,-1c0,-0.6 -0.2,-1 -0.4,-1c-0.3,0 -0.8,0.4 -1.1,1z"/>
  <path d="m474.60209,306.09238c-1.3,0.7 -1.8,2.3 -1.8,5.2c0,13.1 -6.2,43.7 -11.9,58.7c-3.7,9.7 -3.1,10.8 8.9,16.1c4.1,1.8 7.7,3.6 8,4c0.3,0.3 2.8,1.8 5.5,3.4c2.8,1.5 5.2,3 5.5,3.4c1,1.2 7,4 7,3.2c0,-0.4 1.1,-1.4 2.5,-2.1c1.4,-0.7 2.3,-1.5 2,-1.8c-0.2,-0.2 1.6,-2.4 4,-4.8c2.5,-2.4 4.5,-4.8 4.5,-5.3c0,-0.5 0.3,-1.1 0.8,-1.3c3.7,-1.6 17.5,-27 21.1,-38.8c0.6,-1.9 1.7,-5.8 2.5,-8.5c0.9,-2.8 1.8,-6.6 2,-8.5c0.3,-1.9 1,-6.6 1.6,-10.3c1.1,-7.5 0.7,-11.6 -1.2,-12.9c-1.9,-1.2 -58.9,-0.9 -61,0.3zm61.2,1.4c0,0.2 -0.7,5.5 -1.6,11.7c-3.6,26.4 -12.6,47.3 -29.3,67.9c-9.6,12 -8.7,11.7 -16.1,6.7c-3.4,-2.3 -11.3,-6.7 -17.4,-9.8l-11.1,-5.6l2.8,-7.2c5.6,-14.6 10.2,-36.6 11.3,-53.8l0.7,-10.4l30.3,0c16.7,0 30.4,0.2 30.4,0.5z"/>
  <path d="m404.40209,376.29238c-1.6,1.1 -1.7,3.7 -1.6,31.1c0,16.4 0.3,30.3 0.6,30.7c1.4,2.4 5.1,0.4 11.8,-6.4c10.9,-11 21.1,-24.4 27.2,-35.7c1,-1.9 2.7,-4.6 3.7,-5.9c0.9,-1.3 1.7,-3.1 1.7,-4.1c0,-2.4 -3.2,-5 -6.3,-5c-1.4,0 -2.8,-0.4 -3.1,-0.9c-0.3,-0.4 -2.5,-1.1 -4.8,-1.4c-2.4,-0.3 -8.1,-1 -12.8,-1.6c-4.7,-0.6 -9.9,-1.3 -11.5,-1.6c-1.8,-0.3 -3.9,0.1 -4.9,0.8zm19.4,3.6c1.9,0.5 5.6,1.2 8.3,1.5c2.6,0.3 5.1,0.7 5.5,1c0.5,0.3 2.4,0.8 4.3,1.1c1.8,0.3 3.5,0.8 3.7,1c1.3,1.3 -13.7,24.7 -22.5,35.1c-5.5,6.6 -7.9,9 -15.1,15.8l-3.2,3l0,-30.3l0,-30.3l7.8,0.6c4.2,0.4 9.3,1.1 11.2,1.5z"/>
  <path d="m455.20209,386.79238c-1,0.6 -10,14.7 -11.7,18.2c-1.4,3 -10,15.4 -11,15.8c-1.6,0.8 -11.7,13.4 -11.7,14.8c0,0.7 2.5,-1.2 5.5,-4.4c10.9,-11.6 20,-24.5 27.5,-39.1c1.7,-3.4 2.3,-3.9 3.8,-3.1c0.9,0.5 5.1,2.5 9.2,4.5c7.2,3.4 8.8,4.2 17.3,9.4l3.8,2.3l-2.3,1.6c-1.3,0.9 -2.5,1.9 -2.8,2.2c-1.7,2.1 -14.9,10.5 -22.5,14.3c-8.9,4.5 -21.6,9.1 -28.4,10.3c-3.6,0.7 -10.1,3.2 -9.1,3.5c1.9,0.6 5.7,0.5 6.5,-0.1c0.6,-0.5 3.3,-1.1 6,-1.5c2.8,-0.4 6.2,-1.4 7.8,-2.2c1.5,-0.7 2.7,-1.1 2.7,-0.8c0,0.3 1.8,-0.4 4,-1.5c2.1,-1.1 4.6,-2 5.5,-2c0.8,0 1.5,-0.3 1.5,-0.8c0,-0.8 4.8,-3.2 6.4,-3.2c0.6,0 2.9,-1.4 5,-3c2.2,-1.7 4.4,-3 4.8,-3c1.2,0 7.4,-4.6 12.3,-9.2c3.3,-3.1 3.8,-4.1 2.9,-5.5c-1.1,-1.8 -12.4,-10.2 -13.4,-10c-0.3,0.1 -4.4,-1.8 -9.2,-4.1c-9.7,-4.7 -8.9,-4.4 -10.4,-3.4z"/>
  <path d="m346.80209,332.09238c0,0.5 0.5,0.7 1,0.4c0.6,-0.3 1,-0.8 1,-1.1c0,-0.2 -0.4,-0.4 -1,-0.4c-0.5,0 -1,0.5 -1,1.1z"/>
  <path d="m302.70209,333.99238c1.2,1.1 2.7,1.7 3.2,1.4c0.5,-0.3 0.9,0 0.9,0.5c0,0.6 0.6,1.1 1.4,1.1c0.8,0 1.7,0.6 1.9,1.2c0.4,1 0.6,1 0.6,0c0.1,-1.8 4.9,-1.5 5.3,0.3c0.2,1.3 0.6,1.2 1.6,-0.5c1.1,-1.9 1,-2 -2.5,-2c-2.1,0 -6.3,-0.9 -9.3,-2l-5.5,-2l2.4,2z"/>
  <path d="m338.80209,334.39238c0,0.2 1.9,1.4 4.3,2.5c4.3,2.1 8.7,7.4 8.7,10.4c0,0.9 0.5,1.7 1,1.7c3.5,0 -3.3,-11 -8.3,-13.3c-3.4,-1.6 -5.7,-2.2 -5.7,-1.3z"/>
  <path d="m323.20209,337.79238c0.6,1 7.6,1.5 7.6,0.5c0,-0.4 -1.8,-0.9 -4,-1c-2.3,-0.2 -3.9,0.1 -3.6,0.5z"/>
  <path d="m361.80209,353.19238c-1.2,1 -1.8,1.8 -1.2,1.8c1.9,0 6.2,-1.9 6.2,-2.8c0,-1.5 -2.6,-1 -5,1z"/>
  <path d="m353.20209,359.49238c-1.1,2.7 0.2,3.7 1.4,1.1c0.7,-1.6 0.8,-2.6 0.1,-2.6c-0.5,0 -1.2,0.7 -1.5,1.5z"/>
  <path d="m381.40209,359.79238c-0.4,0.7 -1.9,0.9 -3.6,0.5c-3.1,-0.6 -6.4,1.2 -5.4,2.9c1.6,2.6 9,6.8 11.9,6.8c4.1,0 15,-7.8 13.3,-9.5c-1.1,-1.2 -15.5,-1.7 -16.2,-0.7zm9.1,4.8c-3.5,3 -7.9,3.1 -11.9,0.3c-1.6,-1.2 -2.7,-2.4 -2.4,-2.7c0.3,-0.2 1.2,0.1 2.1,0.8c1.2,1 1.9,1 3.6,-0.1c1.2,-0.9 3.8,-1.3 6.7,-1l4.6,0.3l-2.7,2.4z"/>
  <path d="m284.90209,370.59238c0.7,0.9 2.2,1.4 3.6,1.1c1.2,-0.2 2.4,0 2.5,0.4c0.2,0.5 1.4,0.6 2.7,0.2c2.2,-0.6 2.2,-0.6 -0.9,-1.9c-1.8,-0.8 -4.6,-1.4 -6.2,-1.4c-2.7,0 -2.9,0.2 -1.7,1.6z"/>
  <path d="m336.20209,369.99238c-0.5,0.5 -2.3,1 -3.9,1.1c-1.7,0.1 -3.7,0.3 -4.5,0.5c-2,0.5 -2.4,4.4 -0.4,4.4c0.8,0 1.4,-0.9 1.4,-2.1c0,-1.6 0.4,-1.9 1.8,-1.4c2.4,1.1 5.6,0.8 6,-0.5c0.2,-0.5 1,-1 1.7,-1c0.8,0 1.7,-0.5 2,-1c0.8,-1.3 -2.8,-1.3 -4.1,0z"/>
  <path d="m304.30209,372.99238c0.4,0.6 1.1,0.8 1.6,0.5c0.5,-0.4 0.9,0.3 0.9,1.4c0,3 1.5,2.6 1.6,-0.4c0.2,-2 -0.3,-2.5 -2.3,-2.5c-1.4,0 -2.2,0.4 -1.8,1z"/>
  <path d="m310.30209,372.79238c-1.2,1.2 -0.3,2 2.3,2c1.5,0 3,-0.5 3.4,-1.2c0.5,-0.7 0.8,-0.3 0.8,0.9c0,1.7 0.2,1.7 1,0.5c0.5,-0.8 1,-1.8 1,-2.2c0,-0.9 -7.7,-0.8 -8.5,0z"/>
  <path d="m389.40209,375.49238c0.4,0.8 1,1.2 1.5,0.9c1.4,-0.8 1,-2.4 -0.6,-2.4c-0.9,0 -1.2,0.6 -0.9,1.5z"/>
  <path d="m383.80209,375.99238c2,1.3 5.3,1.3 4.5,0c-0.3,-0.6 -1.8,-1 -3.3,-1c-2.1,0 -2.4,0.2 -1.2,1z"/>
  <path d="m277.80209,379.49238c0,0.8 0.7,1.5 1.5,1.5c0.9,0 1.2,-0.6 0.9,-1.5c-0.4,-0.8 -1,-1.5 -1.5,-1.5c-0.5,0 -0.9,0.7 -0.9,1.5z"/>
  <path d="m284.30209,378.99238c-0.3,0.5 -0.1,1 0.4,1c0.6,0 1.1,-0.5 1.1,-1c0,-0.6 -0.2,-1 -0.4,-1c-0.3,0 -0.8,0.4 -1.1,1z"/>
  <path d="m291.30209,379.99238c-0.7,2.3 -2,2.6 -2.9,0.7c-0.4,-0.9 -0.8,-0.9 -1.1,-0.1c-0.3,0.7 -1.4,1 -2.4,0.7c-1,-0.3 -2.1,-0.1 -2.4,0.4c-0.3,0.4 2.4,0.9 6,0.9c3.5,0.1 5.9,-0.2 5.2,-0.7c-0.6,-0.4 -0.9,-1.4 -0.6,-2.3c0.4,-0.9 0.2,-1.6 -0.3,-1.6c-0.5,0 -1.2,0.9 -1.5,2z"/>
  <path d="m297.90209,386.69238c-0.2,3 2.3,3.9 4.7,1.6c1.6,-1.5 1.5,-2 -0.3,-2c-0.8,0 -1.2,0.4 -0.9,0.9c0.3,0.4 -0.1,0.8 -1,0.8c-0.8,0 -1.7,-0.6 -1.9,-1.3c-0.4,-1 -0.6,-1 -0.6,0z"/>
  <path d="m292.10209,388.19238c0.3,1.7 2.7,4.2 3.3,3.5c0.8,-0.7 -1.5,-4.7 -2.6,-4.7c-0.6,0 -0.9,0.6 -0.7,1.2z"/>
  <path d="m280.60209,389.39238c-1.5,1.1 -1.5,1.3 0.3,2.4c1.7,1.1 1.9,0.9 1.9,-1c0,-2.1 0.1,-2.1 1.4,-0.3c1.3,1.8 1.4,1.8 2.4,-0.2l-6,-0.9zc7,-0.9 6.8,-1.1 4.4,-1.2" opacity="undefined" stroke-linecap="undefined" stroke-linejoin="undefined" stroke="#000" fill="#fff"/>
 </g>
</svg>
