<svg width="800" height="600" xmlns="http://www.w3.org/2000/svg" stroke="null" style="vector-effect: non-scaling-stroke;">
 <g stroke="null" id="Layer_1">
  <title stroke="null">Layer 1</title>
  <g stroke="null" id="svg_1">
   <metadata stroke="null">Created by potrace 1.10, written by Peter Selinger 2001-2011</metadata>
   <g stroke="null" id="svg_2" transform="translate(0 300) scale(0.1 -0.1)" fill="#000000">
    <path stroke="null" id="svg_3" d="m4301.78078,2514.49337l-19.24152,-44.89932l-350.19561,-3.45379c-425.23753,-1.7269 -413.69262,-1.7269 -592.63873,-37.99172c-1067.9042,-214.13519 -1874.12377,-906.62079 -2147.35331,-1844.32571c-44.25549,-155.42071 -51.9521,-221.04279 -59.6487,-526.70351c-7.69661,-279.75726 -3.8483,-383.37108 23.08982,-526.70351c34.63473,-188.23175 113.52495,-423.08969 196.26347,-581.96419c30.78643,-60.44139 51.9521,-134.69794 55.8004,-196.86622c1.92415,-55.26069 15.39321,-112.24829 28.86228,-126.06346c17.31737,-18.99586 17.31737,-31.08414 1.92415,-44.89932c-26.93812,-24.17656 -30.78643,-110.52139 -5.77246,-124.33657c9.62076,-6.90758 9.62076,-31.08414 -3.8483,-62.16828c-19.24152,-43.17242 -15.39321,-58.71449 21.16567,-101.8869c23.08982,-29.35725 42.33134,-69.07586 42.33134,-91.52553c0,-48.35311 9.62076,-58.71449 103.90419,-131.24415c88.51098,-69.07586 121.22156,-65.62207 263.60878,24.17656c100.05589,62.16828 132.76647,62.16828 192.41517,-3.45379c69.26946,-75.98346 429.08583,-295.29934 621.501,-378.19039c203.96008,-88.07174 407.92016,-158.8745 509.9002,-176.14347c26.93812,-3.45379 53.87625,-10.36139 63.49701,-15.54207c7.69661,-5.18069 55.8004,-12.08828 105.82834,-17.26897c51.9521,-5.18069 115.4491,-20.72276 146.23553,-32.81104c28.86228,-13.81518 48.10379,-15.54207 42.33134,-6.90758c-13.46906,17.26897 15.39321,22.44965 34.63473,5.18069c15.39321,-15.54207 723.48104,-18.99586 713.86028,-5.18069c-3.8483,6.90758 13.46906,10.36139 38.48303,8.63449c25.01397,0 42.33134,-8.63449 36.55888,-17.26897c-5.77246,-8.63449 0,-10.36139 15.39321,-6.90758c15.39321,5.18069 25.01397,17.26897 23.08982,27.63035c-1.92415,8.63449 25.01397,20.72276 61.57285,24.17656c34.63473,3.45379 59.6487,0 55.8004,-6.90758c-5.77246,-6.90758 0,-13.81518 9.62076,-13.81518c11.54491,0 21.16567,6.90758 21.16567,13.81518c0,8.63449 28.86228,12.08828 63.49701,8.63449c46.17964,-3.45379 51.9521,-1.7269 23.08982,8.63449c-34.63473,13.81518 -32.71058,15.54207 13.46906,25.90346c28.86228,6.90758 63.49701,6.90758 80.81437,1.7269c15.39321,-5.18069 61.57285,0 100.05589,10.36139c53.87625,15.54207 63.49701,25.90346 44.25549,37.99172c-19.24152,12.08828 -11.54491,13.81518 23.08982,6.90758c28.86228,-5.18069 84.66268,1.7269 125.06986,17.26897c101.98004,36.26483 319.40918,132.97104 348.27146,153.69382c13.46906,10.36139 98.13174,60.44139 188.56687,112.24829c109.67665,63.89518 159.70459,103.6138 153.93214,120.88278c-3.8483,13.81518 15.39321,39.71862 44.25549,58.71449l51.9521,32.81104l-46.17964,-44.89932c-100.05589,-98.43311 -1.92415,-39.71862 134.69062,79.43725c163.5529,143.33243 294.39521,281.48417 375.20958,392.00557c30.78643,43.17242 61.57285,81.16415 71.19361,82.89104c7.69661,3.45379 13.46906,17.26897 13.46906,29.35725c0,12.08828 5.77246,25.90346 15.39321,29.35725c25.01397,10.36139 140.46307,240.03865 128.91816,255.58072c-5.77246,10.36139 -1.92415,31.08414 9.62076,46.62621c19.24152,27.63035 21.16567,27.63035 9.62076,-3.45379c-9.62076,-27.63035 -7.69661,-29.35725 11.54491,-13.81518c13.46906,12.08828 23.08982,48.35311 21.16567,81.16415c-1.92415,32.81104 5.77246,65.62207 13.46906,70.80276c9.62076,5.18069 13.46906,-8.63449 9.62076,-29.35725l-9.62076,-39.71862l19.24152,39.71862c11.54491,20.72276 13.46906,51.8069 7.69661,67.34897c-7.69661,18.99586 -5.77246,24.17656 11.54491,15.54207c15.39321,-8.63449 23.08982,-5.18069 19.24152,8.63449c-1.92415,13.81518 -1.92415,43.17242 0,67.34897c1.92415,34.53793 5.77246,37.99172 21.16567,17.26897c13.46906,-18.99586 17.31737,-13.81518 17.31737,25.90346c0,100.16001 25.01397,203.77382 42.33134,179.59726c13.46906,-18.99586 17.31737,-17.26897 17.31737,6.90758c0,15.54207 -9.62076,29.35725 -21.16567,29.35725c-11.54491,0 -13.46906,8.63449 -3.8483,22.44965c15.39321,22.44965 17.31737,31.08414 21.16567,103.6138c1.92415,27.63035 9.62076,44.89932 19.24152,41.44553c19.24152,-12.08828 5.77246,566.42212 -17.31737,678.67041c-11.54491,51.8069 -23.08982,113.97518 -28.86228,138.15174c-42.33134,203.77382 -155.85629,480.07729 -277.07785,682.12422c-69.26946,113.97518 -73.11776,129.51725 -63.49701,233.13107c11.54491,141.60553 -23.08982,248.67314 -86.58683,255.58072c-23.08982,3.45379 -42.33134,-1.7269 -42.33134,-10.36139c0,-8.63449 -21.16567,-29.35725 -46.17964,-44.89932c-46.17964,-25.90346 -50.02794,-24.17656 -246.29142,150.24001c-230.89821,205.50071 -471.41717,362.64832 -727.32935,478.3504c-198.18763,88.07174 -467.56887,176.14347 -634.97006,207.22761c-90.43513,15.54207 -109.67665,25.90346 -136.61477,74.25657c-40.40719,72.52967 -105.82834,82.89104 -132.76647,22.44965l0,-0.00008zm169.32535,-155.42071c55.8004,-79.43725 173.17365,-221.04279 261.68463,-316.02211c88.51098,-93.25243 169.32535,-188.23175 182.79441,-207.22761c26.93812,-48.35311 26.93812,-112.24829 -1.92415,-169.23589c-40.40719,-79.43725 5.77246,-69.07586 94.28343,22.44965c75.04192,77.71036 96.20759,89.79864 155.85629,89.79864c88.51098,0 234.74651,-58.71449 234.74651,-93.25243c0,-13.81518 -9.62076,-46.62621 -19.24152,-72.52967c-13.46906,-31.08414 -13.46906,-51.8069 0,-67.34897c15.39321,-15.54207 15.39321,-25.90346 0,-34.53793c-53.87625,-29.35725 26.93812,-36.26483 357.89222,-31.08414c363.66467,6.90758 402.14771,13.81518 482.96208,79.43725c25.01397,18.99586 48.10379,31.08414 53.87625,25.90346c26.93812,-22.44965 42.33134,-177.87036 25.01397,-236.58486c-26.93812,-89.79864 -32.71058,-91.52553 -88.51098,-56.9876c-100.05589,63.89518 -178.94611,91.52553 -302.09182,105.34071c-123.14571,12.08828 -123.14571,12.08828 -182.79441,-44.89932c-53.87625,-50.08 -61.57285,-69.07586 -65.42116,-169.23589c-1.92415,-62.16828 -13.46906,-120.88278 -26.93812,-132.97104c-36.55888,-32.81104 -184.71856,-43.17242 -279.002,-18.99586c-65.42116,17.26897 -101.98004,39.71862 -142.38723,91.52553c-28.86228,36.26483 -71.19361,75.98346 -94.28343,86.34483c-34.63473,17.26897 -48.10379,13.81518 -90.43513,-24.17656c-40.40719,-36.26483 -67.34531,-44.89932 -132.76647,-43.17242c-101.98004,3.45379 -298.24352,-81.16415 -479.11378,-205.50071c-163.5529,-110.52139 -155.85629,-107.0676 -309.78843,-141.60553l-132.76647,-29.35725l-105.82834,110.52139c-107.7525,113.97518 -242.44312,284.93796 -298.24352,376.4635c-19.24152,32.81104 -50.02794,53.53379 -78.89022,56.9876c-42.33134,5.18069 -51.9521,-5.18069 -80.81437,-88.07174c-53.87625,-155.42071 -36.55888,-409.27453 34.63473,-492.16557c34.63473,-41.44553 -126.99401,-3.45379 -180.87026,41.44553c-40.40719,34.53793 -44.25549,46.62621 -25.01397,74.25657c17.31737,25.90346 17.31737,44.89932 1.92415,84.61794c-17.31737,41.44553 -17.31737,62.16828 3.8483,96.70622c17.31737,31.08414 19.24152,50.08 5.77246,65.62207c-38.48303,43.17242 -48.10379,145.05932 -15.39321,169.23589c15.39321,12.08828 28.86228,39.71862 28.86228,62.16828c0,69.07586 51.9521,75.98346 250.13972,29.35725c244.36727,-58.71449 702.31537,-65.62207 919.74452,-15.54207c76.96607,17.26897 136.61477,39.71862 134.69062,48.35311c-3.8483,10.36139 -80.81437,43.17242 -169.32535,72.52967c-288.62276,98.43311 -463.72056,193.41243 -590.71458,321.20279c-55.8004,55.26069 -167.4012,207.22761 -157.78044,214.13519c3.8483,3.45379 76.96607,-8.63449 161.62874,-24.17656c196.26347,-39.71862 567.62475,-84.61794 577.24551,-69.07586c5.77246,6.90758 -9.62076,46.62621 -32.71058,88.07174c-50.02794,94.97932 -67.34531,303.93383 -34.63473,428.27039c11.54491,48.35311 28.86228,88.07174 34.63473,88.07174c7.69661,-1.7269 59.6487,-67.34897 115.4491,-145.05932zm-227.0499,-46.62621l0,-105.34071l-100.05589,72.52967c-130.84232,93.25243 -150.08383,77.71036 -152.00799,-134.69794c0,-88.07174 -7.69661,-158.8745 -13.46906,-158.8745c-7.69661,0 -32.71058,5.18069 -55.8004,10.36139c-40.40719,10.36139 -44.25549,20.72276 -44.25549,151.96691c-1.92415,162.32829 -30.78643,222.76968 -90.43513,181.32415c-69.26946,-50.08 -307.86427,-269.39589 -382.90619,-352.28693c-92.35928,-103.6138 -219.35329,-264.21521 -219.35329,-278.03037c0,-5.18069 -21.16567,-34.53793 -46.17964,-63.89518c-78.89022,-96.70622 -207.80838,-352.28693 -196.26347,-388.55176c7.69661,-20.72276 50.02794,-44.89932 115.4491,-63.89518c78.89022,-24.17656 105.82834,-41.44553 123.14571,-81.16415c23.08982,-56.9876 21.16567,-56.9876 -128.91816,-20.72276c-175.09781,44.89932 -198.18763,32.81104 -248.21557,-126.06346c-23.08982,-74.25657 -46.17964,-164.05519 -50.02794,-200.32003c-5.77246,-36.26483 -19.24152,-75.98346 -28.86228,-88.07174c-11.54491,-12.08828 -26.93812,-56.9876 -32.71058,-98.43311c-5.77246,-41.44553 -17.31737,-113.97518 -26.93812,-158.8745c-11.54491,-44.89932 -19.24152,-117.42897 -19.24152,-158.8745c0,-79.43725 -13.46906,-91.52553 -76.96607,-60.44139c-25.01397,12.08828 -32.71058,31.08414 -28.86228,63.89518c3.8483,27.63035 11.54491,88.07174 17.31737,134.69794c25.01397,202.04692 101.98004,521.52282 157.78044,649.31318c19.24152,43.17242 28.86228,91.52553 21.16567,107.0676c-5.77246,15.54207 -82.73852,60.44139 -171.2495,100.16001c-213.58084,94.97932 -431.00998,210.6814 -457.94811,241.76554c-5.77246,5.18069 -38.48303,24.17656 -75.04192,39.71862l-63.49701,31.08414l-67.34531,-67.34897c-38.48303,-36.26483 -119.29741,-134.69794 -182.79441,-217.589c-246.29142,-328.11039 -388.67865,-680.39732 -436.78244,-1082.76426c-21.16567,-184.77796 -38.48303,-179.59726 509.9002,-174.41657c471.41717,5.18069 513.74851,-1.7269 494.50699,-67.34897c-9.62076,-32.81104 -28.86228,-34.53793 -484.88623,-34.53793c-344.42316,0 -481.03793,-5.18069 -498.35529,-20.72276c-13.46906,-12.08828 -23.08982,-58.71449 -23.08982,-107.0676c0,-98.43311 57.72455,-412.72832 78.89022,-424.8166c7.69661,-5.18069 19.24152,-39.71862 26.93812,-77.71036c7.69661,-37.99172 21.16567,-75.98346 28.86228,-86.34483c7.69661,-8.63449 32.71058,-69.07586 57.72455,-132.97104c40.40719,-107.0676 42.33134,-115.70208 13.46906,-143.33243c-17.31737,-15.54207 -40.40719,-24.17656 -50.02794,-17.26897c-36.55888,18.99586 -200.11178,457.62764 -227.0499,609.59455c-9.62076,44.89932 -15.39321,255.58072 -15.39321,469.71591c0,502.52694 32.71058,644.13248 255.91218,1087.94494c17.31737,32.81104 53.87625,93.25243 84.66268,132.97104c28.86228,39.71862 53.87625,79.43725 53.87625,88.07174c0,6.90758 28.86228,44.89932 65.42116,82.89104c34.63473,36.26483 65.42116,72.52967 67.34531,81.16415c1.92415,13.81518 42.33134,56.9876 111.6008,122.60967c25.01397,22.44965 44.25549,48.35311 44.25549,58.71449c0,10.36139 25.01397,32.81104 55.8004,48.35311c32.71058,17.26897 53.87625,36.26483 50.02794,41.44553c-3.8483,5.18069 17.31737,24.17656 50.02794,41.44553c30.78643,15.54207 55.8004,36.26483 55.8004,44.89932c0,8.63449 23.08982,27.63035 53.87625,41.44553c28.86228,13.81518 76.96607,44.89932 109.67665,70.80276c51.9521,44.89932 257.83633,170.96278 279.002,172.68968c5.77246,0 50.02794,20.72276 100.05589,48.35311c50.02794,25.90346 100.05589,46.62621 111.6008,46.62621c13.46906,0 46.17964,10.36139 73.11776,24.17656c140.46307,65.62207 348.27146,129.51725 454.0998,141.60553c42.33134,3.45379 84.66268,13.81518 96.20759,22.44965c11.54491,8.63449 36.55888,12.08828 55.8004,10.36139c17.31737,-3.45379 55.8004,0 86.58683,8.63449c28.86228,8.63449 205.88423,15.54207 394.4511,15.54207l340.57485,1.7269l0,-105.34071l0,-0.00002zm500.27944,6.90758c26.93812,-12.08828 63.49701,-22.44965 82.73852,-22.44965c17.31737,0 48.10379,-6.90758 67.34531,-15.54207c17.31737,-6.90758 63.49701,-25.90346 100.05589,-39.71862c153.93214,-58.71449 338.6507,-145.05932 373.28543,-172.68968c21.16567,-17.26897 46.17964,-31.08414 53.87625,-31.08414c15.39321,0 92.35928,-46.62621 244.36727,-150.24001c84.66268,-58.71449 178.94611,-134.69794 240.51896,-193.41243c128.91816,-126.06346 146.23553,-145.05932 140.46307,-151.96691c-15.39321,-12.08828 -379.05789,-15.54207 -379.05789,-3.45379c0,8.63449 21.16567,27.63035 48.10379,43.17242c96.20759,55.26069 57.72455,110.52139 -211.65669,303.93383c-165.47705,120.88278 -427.16168,246.94623 -634.97006,309.11451c-63.49701,18.99586 -130.84232,41.44553 -148.15968,51.8069c-19.24152,8.63449 -50.02794,15.54207 -67.34531,15.54207c-55.8004,0 9.62076,-44.89932 111.6008,-74.25657c280.92615,-84.61794 586.86627,-240.03865 829.30939,-419.6359c82.73852,-62.16828 150.08383,-115.70208 150.08383,-117.42897c0,-22.44965 -217.42914,-131.24415 -259.76048,-131.24415l-53.87625,0l11.54491,101.8869c11.54491,98.43311 9.62076,105.34071 -40.40719,136.42485c-123.14571,77.71036 -277.07785,93.25243 -355.96807,37.99172c-57.72455,-41.44553 -78.89022,-43.17242 -63.49701,-6.90758c15.39321,36.26483 -15.39321,86.34483 -103.90419,170.96278c-126.99401,122.60967 -327.10579,354.01383 -327.10579,379.91729c0,27.63035 113.52495,17.26897 192.41517,-20.72276l0,-0.00005zm-904.3513,-160.6014l0,-155.42071l-51.9521,12.08828c-184.71856,44.89932 -223.2016,-10.36139 -111.6008,-160.6014c36.55888,-51.8069 90.43513,-110.52139 115.4491,-131.24415c44.25549,-34.53793 48.10379,-48.35311 48.10379,-205.50071l0,-167.50898l-80.81437,8.63449c-88.51098,10.36139 -253.98803,43.17242 -355.96807,70.80276c-84.66268,24.17656 -186.64272,-20.72276 -194.33932,-86.34483c-3.8483,-24.17656 -19.24152,-55.26069 -34.63473,-65.62207c-15.39321,-12.08828 -26.93812,-34.53793 -26.93812,-51.8069c0,-27.63035 -5.77246,-27.63035 -86.58683,-3.45379c-48.10379,13.81518 -86.58683,29.35725 -86.58683,36.26483c0,22.44965 194.33932,354.01383 263.60878,447.26626c144.31138,198.59312 536.83833,602.68697 588.79042,606.14076c7.69661,1.7269 13.46906,-69.07586 13.46906,-153.69382l0,-0.00002zm427.16168,-94.97932c11.54491,-37.99172 30.78643,-79.43725 42.33134,-93.25243c17.31737,-20.72276 9.62076,-22.44965 -55.8004,-13.81518c-42.33134,6.90758 -109.67665,12.08828 -148.15968,12.08828l-73.11776,0l0,176.14347l0,176.14347l105.82834,-93.25243c71.19361,-62.16828 115.4491,-119.15587 128.91816,-164.05519zm-311.71258,-461.08143c30.78643,-18.99586 51.9521,-43.17242 46.17964,-51.8069c-5.77246,-8.63449 -9.62076,-56.9876 -9.62076,-108.7945c0,-93.25243 -1.92415,-94.97932 -57.72455,-94.97932l-55.8004,0l0,146.78622c0,81.16415 3.8483,146.78622 9.62076,146.78622c5.77246,0 36.55888,-17.26897 67.34531,-37.99172zm392.52695,-179.59726c26.93812,-5.18069 53.87625,-17.26897 59.6487,-24.17656c13.46906,-20.72276 -34.63473,-31.08414 -215.50499,-43.17242l-159.70459,-12.08828l0,103.6138l0,105.34071l132.76647,-58.71449c71.19361,-32.81104 153.93214,-63.89518 182.79441,-70.80276l0,0.00002zm-1820.24752,-210.6814c115.4491,-48.35311 177.02196,-84.61794 169.32535,-98.43311c-80.81437,-189.95864 -202.03593,-690.75869 -203.96008,-846.1794c0,-41.44553 -13.46906,-56.9876 -61.57285,-77.71036c-59.6487,-25.90346 -78.89022,-46.62621 -100.05589,-107.0676c-9.62076,-29.35725 -51.9521,-31.08414 -511.82435,-31.08414l-502.2036,0l9.62076,112.24829c42.33134,464.53522 265.53294,948.06631 596.48703,1286.53806l59.6487,60.44139l182.79441,-110.52139c100.05589,-60.44139 263.60878,-145.05932 361.74052,-188.23175l0,0.00002zm3492.33535,113.97518c94.28343,-32.81104 302.09182,-367.82901 409.84431,-663.12834c38.48303,-108.7945 121.22156,-504.25385 123.14571,-588.87179c0,-17.26897 -119.29741,-22.44965 -536.83833,-22.44965l-536.83833,0l9.62076,100.16001c5.77246,60.44139 -1.92415,126.06346 -17.31737,167.50898c-21.16567,58.71449 -34.63473,69.07586 -78.89022,69.07586c-28.86228,-1.7269 -50.02794,6.90758 -48.10379,17.26897c9.62076,43.17242 -57.72455,348.83314 -111.6008,519.79591c-32.71058,96.70622 -96.20759,193.41243 -75.04192,110.52139c5.77246,-24.17656 19.24152,-70.80276 28.86228,-103.6138c30.78643,-105.34071 78.89022,-283.21107 86.58683,-319.4759c3.8483,-18.99586 11.54491,-69.07586 19.24152,-112.24829c5.77246,-43.17242 15.39321,-93.25243 21.16567,-113.97518c7.69661,-25.90346 -3.8483,-39.71862 -42.33134,-55.26069c-26.93812,-12.08828 -53.87625,-18.99586 -55.8004,-17.26897c-5.77246,6.90758 -71.19361,354.01383 -76.96607,402.36694c-1.92415,18.99586 -7.69661,46.62621 -13.46906,60.44139c-34.63473,82.89104 -111.6008,309.11451 -111.6008,324.65658c0,10.36139 19.24152,27.63035 40.40719,39.71862c36.55888,17.26897 50.02794,10.36139 115.4491,-50.08c40.40719,-39.71862 98.13174,-82.89104 130.84232,-96.70622c105.82834,-50.08 352.11976,-24.17656 396.37525,41.44553c7.69661,12.08828 17.31737,70.80276 19.24152,129.51725c3.8483,82.89104 13.46906,117.42897 48.10379,151.96691c38.48303,39.71862 55.8004,44.89932 123.14571,36.26483c44.25549,-5.18069 101.98004,-17.26897 132.76647,-27.63035l0,0.00002zm-2395.56888,-238.31175c75.04192,-100.16001 202.03593,-246.94623 282.8503,-328.11039c152.00799,-153.69382 186.64272,-226.22347 146.23553,-303.93383c-25.01397,-51.8069 -26.93812,-93.25243 -3.8483,-93.25243c9.62076,0 48.10379,39.71862 86.58683,86.34483c67.34531,84.61794 71.19361,86.34483 169.32535,86.34483c67.34531,0 123.14571,-12.08828 165.47705,-34.53793c67.34531,-37.99172 71.19361,-44.89932 42.33134,-112.24829c-13.46906,-31.08414 -13.46906,-56.9876 0,-79.43725c13.46906,-22.44965 13.46906,-32.81104 0,-32.81104c-9.62076,0 -19.24152,-6.90758 -19.24152,-17.26897c0,-10.36139 128.91816,-17.26897 352.11976,-17.26897c302.09182,0 361.74052,5.18069 429.08583,32.81104c44.25549,18.99586 90.43513,46.62621 100.05589,65.62207c19.24152,27.63035 23.08982,27.63035 40.40719,-17.26897c28.86228,-65.62207 25.01397,-219.31589 -5.77246,-267.669c-21.16567,-36.26483 -26.93812,-37.99172 -50.02794,-12.08828c-46.17964,50.08 -177.02196,98.43311 -311.71258,115.70208l-130.84232,15.54207l-63.49701,-58.71449c-55.8004,-53.53379 -61.57285,-70.80276 -63.49701,-165.78208c0,-129.51725 -26.93812,-158.8745 -157.78044,-170.96278c-98.13174,-6.90758 -273.22954,44.89932 -273.22954,82.89104c0,10.36139 -30.78643,44.89932 -69.26946,79.43725l-71.19361,60.44139l-55.8004,-46.62621c-40.40719,-36.26483 -71.19361,-48.35311 -126.99401,-46.62621c-96.20759,3.45379 -342.499,-103.6138 -517.59681,-222.76968c-109.67665,-75.98346 -165.47705,-101.8869 -275.15369,-126.06346l-136.61477,-29.35725l-71.19361,72.52967c-115.4491,119.15587 -271.30539,312.56832 -325.18164,402.36694c-40.40719,65.62207 -59.6487,81.16415 -101.98004,81.16415c-63.49701,0 -94.28343,-67.34897 -109.67665,-241.76554c-11.54491,-119.15587 19.24152,-302.20693 55.8004,-321.20279c36.55888,-20.72276 9.62076,-32.81104 -59.6487,-27.63035c-96.20759,8.63449 -150.08383,56.9876 -123.14571,110.52139c11.54491,25.90346 11.54491,53.53379 -1.92415,86.34483c-13.46906,34.53793 -11.54491,56.9876 7.69661,89.79864c17.31737,31.08414 19.24152,50.08 5.77246,65.62207c-11.54491,12.08828 -26.93812,55.26069 -34.63473,94.97932c-9.62076,58.71449 -7.69661,75.98346 17.31737,84.61794c17.31737,5.18069 30.78643,27.63035 30.78643,50.08c0,77.71036 42.33134,84.61794 234.74651,41.44553c157.78044,-36.26483 221.27745,-41.44553 534.91418,-39.71862c355.96807,0 515.67266,22.44965 532.99002,70.80276c3.8483,10.36139 -48.10379,34.53793 -123.14571,56.9876c-207.80838,58.71449 -442.55489,170.96278 -558.004,265.9421c-100.05589,81.16415 -250.13972,262.4883 -232.82236,279.75726c5.77246,3.45379 38.48303,-1.7269 75.04192,-12.08828c96.20759,-25.90346 671.52895,-94.97932 671.52895,-81.16415c0,3.45379 -17.31737,37.99172 -36.55888,75.98346c-69.26946,126.06346 -86.58683,271.12279 -50.02794,416.18211c17.31737,70.80276 34.63473,126.06346 38.48303,122.60967c1.92415,-3.45379 67.34531,-86.34483 140.46307,-186.50485l0,0.00003zm2714.97806,88.07174c25.01397,-31.08414 69.26946,-107.0676 100.05589,-167.50898c59.6487,-119.15587 194.33932,-455.90073 180.87026,-455.90073c-5.77246,0 0,-18.99586 9.62076,-43.17242c9.62076,-24.17656 25.01397,-79.43725 32.71058,-124.33657c21.16567,-124.33657 11.54491,-766.74215 -13.46906,-880.71734c-11.54491,-55.26069 -25.01397,-119.15587 -30.78643,-143.33243c-25.01397,-110.52139 -130.84232,-360.92143 -221.27745,-521.52282c-55.8004,-98.43311 -105.82834,-181.32415 -111.6008,-186.50485c-5.77246,-5.18069 -42.33134,-51.8069 -80.81437,-103.6138c-123.14571,-165.78208 -344.42316,-378.19039 -538.76248,-509.43454c-67.34531,-46.62621 -130.84232,-91.52553 -142.38723,-98.43311c-169.32535,-117.42897 -432.93413,-233.13107 -750.41917,-328.11039c-288.62276,-84.61794 -404.07186,-101.8869 -790.82635,-112.24829c-280.92615,-6.90758 -332.87825,-3.45379 -538.76248,36.26483c-273.22954,53.53379 -452.17565,98.43311 -556.07984,138.15174c-330.95409,129.51725 -648.43913,307.38762 -804.29541,448.99315l-55.8004,51.8069l84.66268,37.99172c46.17964,22.44965 103.90419,39.71862 130.84232,41.44553l46.17964,0l-42.33134,-27.63035c-57.72455,-34.53793 -53.87625,-46.62621 28.86228,-120.88278c69.26946,-58.71449 319.40918,-214.13519 346.34731,-214.13519c7.69661,0 26.93812,-10.36139 42.33134,-22.44965c17.31737,-12.08828 78.89022,-41.44553 136.61477,-63.89518c57.72455,-22.44965 150.08383,-58.71449 202.03593,-79.43725c53.87625,-20.72276 123.14571,-43.17242 153.93214,-50.08c32.71058,-6.90758 71.19361,-15.54207 86.58683,-20.72276c15.39321,-5.18069 42.33134,-10.36139 57.72455,-12.08828c15.39321,-1.7269 61.57285,-8.63449 101.98004,-17.26897c50.02794,-10.36139 80.81437,-6.90758 100.05589,6.90758c40.40719,29.35725 38.48303,34.53793 -40.40719,112.24829c-36.55888,37.99172 -96.20759,98.43311 -128.91816,134.69794c-34.63473,37.99172 -69.26946,75.98346 -80.81437,88.07174c-48.10379,50.08 -219.35329,284.93796 -257.83633,355.74072c-71.19361,124.33657 -132.76647,189.95864 -171.2495,177.87036c-25.01397,-6.90758 -25.01397,-3.45379 5.77246,17.26897c21.16567,15.54207 50.02794,29.35725 63.49701,29.35725c11.54491,0 23.08982,6.90758 23.08982,15.54207c0,15.54207 169.32535,70.80276 219.35329,70.80276c57.72455,0 30.78643,-32.81104 -36.55888,-44.89932c-94.28343,-15.54207 -100.05589,-56.9876 -30.78643,-184.77796c67.34531,-119.15587 182.79441,-288.39175 209.73254,-303.93383c9.62076,-5.18069 26.93812,-25.90346 38.48303,-46.62621c42.33134,-74.25657 373.28543,-398.91315 452.17565,-445.53936c51.9521,-31.08414 53.87625,-31.08414 80.81437,0c23.08982,25.90346 26.93812,120.88278 28.86228,483.53108l0,450.72005l48.10379,39.71862c40.40719,34.53793 48.10379,56.9876 48.10379,141.60553c0,100.16001 11.54491,117.42897 53.87625,79.43725c13.46906,-12.08828 55.8004,-18.99586 96.20759,-17.26897c42.33134,3.45379 96.20759,-3.45379 123.14571,-12.08828c25.01397,-8.63449 76.96607,-10.36139 113.52495,-3.45379c63.49701,13.81518 63.49701,13.81518 17.31737,25.90346c-26.93812,5.18069 -113.52495,17.26897 -192.41517,24.17656c-126.99401,10.36139 -144.31138,15.54207 -144.31138,46.62621c0,29.35725 11.54491,34.53793 67.34531,29.35725c111.6008,-8.63449 257.83633,-51.8069 304.01597,-89.79864c23.08982,-18.99586 42.33134,-29.35725 42.33134,-22.44965c0,6.90758 7.69661,5.18069 15.39321,-5.18069c19.24152,-24.17656 152.00799,-77.71036 180.87026,-74.25657c13.46906,1.7269 38.48303,0 53.87625,-6.90758c65.42116,-20.72276 198.18763,-43.17242 221.27745,-36.26483c13.46906,5.18069 40.40719,53.53379 59.6487,107.0676c19.24152,53.53379 44.25549,103.6138 55.8004,110.52139c9.62076,6.90758 13.46906,13.81518 7.69661,13.81518c-7.69661,0 3.8483,48.35311 25.01397,108.7945c78.89022,219.31589 142.38723,538.79179 153.93214,768.46905c5.77246,136.42485 -9.62076,148.51312 -219.35329,143.33243c-111.6008,-3.45379 -150.08383,1.7269 -152.00799,18.99586c0,12.08828 -3.8483,39.71862 -5.77246,62.16828c-5.77246,37.99172 7.69661,48.35311 34.63473,25.90346c19.24152,-17.26897 304.01597,-5.18069 330.95409,13.81518c26.93812,18.99586 169.32535,-39.71862 148.15968,-62.16828c-7.69661,-8.63449 7.69661,-1.7269 36.55888,13.81518c44.25549,24.17656 121.22156,27.63035 594.56288,27.63035c448.32735,1.7269 548.38324,5.18069 571.47306,25.90346c28.86228,24.17656 25.01397,70.80276 -25.01397,390.27866c-26.93812,170.96278 -180.87026,547.42626 -255.91218,626.86351c-15.39321,15.54207 -23.08982,29.35725 -15.39321,29.35725c7.69661,0 -13.46906,34.53793 -46.17964,77.71036l-59.6487,77.71036l63.49701,-3.45379c48.10379,-3.45379 75.04192,-20.72276 109.67665,-63.89518l0,-0.00002zm-3197.94014,-157.14761c25.01397,0 36.55888,-62.16828 26.93812,-169.23589c-1.92415,-32.81104 5.77246,-69.07586 19.24152,-82.89104c17.31737,-18.99586 13.46906,-24.17656 -26.93812,-24.17656c-46.17964,0 -344.42316,50.08 -355.96807,60.44139c-5.77246,5.18069 69.26946,248.67314 84.66268,269.39589c3.8483,6.90758 55.8004,-3.45379 115.4491,-20.72276c61.57285,-18.99586 121.22156,-32.81104 136.61477,-32.81104zm1966.48305,-376.4635c19.24152,-91.52553 42.33134,-208.9545 50.02794,-257.30761l13.46906,-91.52553l-248.21557,-1.7269c-134.69062,0 -269.38124,-3.45379 -298.24352,-6.90758c-61.57285,-6.90758 -73.11776,20.72276 -50.02794,119.15587c19.24152,79.43725 0,107.0676 -113.52495,151.96691c-113.52495,44.89932 -225.12575,44.89932 -294.39521,-1.7269l-57.72455,-37.99172l0,50.08c0,27.63035 -17.31737,70.80276 -40.40719,96.70622c-50.02794,56.9876 -38.48303,72.52967 61.57285,86.34483c101.98004,13.81518 192.41517,56.9876 334.8024,155.42071c63.49701,44.89932 136.61477,84.61794 163.5529,91.52553c123.14571,24.17656 313.63673,74.25657 325.18164,82.89104c17.31737,15.54207 111.6008,-253.85382 153.93214,-436.90487zm-2297.43714,-31.08414c69.26946,-113.97518 271.30539,-264.21521 479.11378,-354.01383c107.7525,-46.62621 209.73254,-84.61794 228.97405,-84.61794c17.31737,0 32.71058,-6.90758 32.71058,-17.26897c0,-8.63449 -15.39321,-17.26897 -32.71058,-18.99586c-19.24152,0 -51.9521,-5.18069 -73.11776,-8.63449c-96.20759,-22.44965 -586.86627,-8.63449 -710.01198,20.72276l-53.87625,12.08828l13.46906,122.60967c5.77246,67.34897 21.16567,157.14761 30.78643,198.59312c9.62076,41.44553 19.24152,101.8869 21.16567,132.97104c3.8483,74.25657 17.31737,74.25657 63.49701,-3.45379zm2307.0579,-505.98075c30.78643,-5.18069 59.6487,-20.72276 65.42116,-31.08414c5.77246,-17.26897 -32.71058,-22.44965 -148.15968,-22.44965c-152.00799,0 -155.85629,1.7269 -132.76647,34.53793c25.01397,36.26483 98.13174,43.17242 215.50499,18.99586zm-2441.74852,-143.33243c71.19361,-107.0676 225.12575,-290.11865 388.67865,-459.35454c103.90419,-108.7945 121.22156,-134.69794 121.22156,-193.41243c0,-36.26483 -9.62076,-88.07174 -23.08982,-112.24829c-32.71058,-63.89518 0,-77.71036 48.10379,-17.26897c23.08982,29.35725 65.42116,74.25657 96.20759,101.8869c48.10379,44.89932 61.57285,48.35311 142.38723,37.99172c48.10379,-5.18069 117.37325,-25.90346 152.00799,-46.62621c63.49701,-34.53793 63.49701,-36.26483 38.48303,-91.52553c-19.24152,-41.44553 -21.16567,-65.62207 -5.77246,-88.07174c13.46906,-24.17656 13.46906,-34.53793 -1.92415,-39.71862c-130.84232,-37.99172 540.68663,-55.26069 706.16368,-17.26897c42.33134,10.36139 100.05589,36.26483 126.99401,58.71449c26.93812,22.44965 53.87625,41.44553 57.72455,41.44553c1.92415,0 15.39321,-37.99172 28.86228,-82.89104c15.39321,-63.89518 15.39321,-103.6138 -1.92415,-164.05519c-11.54491,-44.89932 -25.01397,-81.16415 -28.86228,-81.16415c-1.92415,0 -48.10379,24.17656 -100.05589,53.53379c-103.90419,56.9876 -202.03593,82.89104 -317.48503,84.61794c-59.6487,0 -86.58683,-12.08828 -130.84232,-53.53379c-48.10379,-46.62621 -55.8004,-67.34897 -55.8004,-155.42071c0,-119.15587 -32.71058,-158.8745 -140.46307,-177.87036c-123.14571,-20.72276 -221.27745,15.54207 -332.87825,124.33657l-101.98004,98.43311l-53.87625,-48.35311c-42.33134,-34.53793 -75.04192,-46.62621 -134.69062,-46.62621c-105.82834,0 -292.47106,-77.71036 -454.0998,-188.23175c-167.4012,-112.24829 -209.73254,-131.24415 -371.36128,-167.50898c-163.5529,-36.26483 -384.83034,-124.33657 -509.9002,-205.50071c-51.9521,-32.81104 -105.82834,-60.44139 -119.29741,-60.44139c-13.46906,0 -53.87625,25.90346 -88.51098,58.71449c-48.10379,44.89932 -61.57285,70.80276 -53.87625,98.43311c7.69661,25.90346 -3.8483,55.26069 -34.63473,88.07174c-38.48303,39.71862 -44.25549,58.71449 -28.86228,82.89104c13.46906,22.44965 11.54491,46.62621 -3.8483,77.71036c-17.31737,34.53793 -15.39321,53.53379 3.8483,86.34483c19.24152,32.81104 21.16567,53.53379 3.8483,82.89104c-40.40719,75.98346 -44.25549,129.51725 -9.62076,160.6014c19.24152,15.54207 30.78643,46.62621 28.86228,65.62207c-7.69661,60.44139 55.8004,82.89104 153.93214,53.53379c227.0499,-67.34897 642.66667,-96.70622 883.18564,-62.16828c171.2495,25.90346 271.30539,53.53379 263.60878,74.25657c-3.8483,10.36139 -65.42116,37.99172 -134.69062,58.71449c-334.8024,101.8869 -592.63873,264.21521 -731.17765,464.53522l-57.72455,82.89104l55.8004,-10.36139c50.02794,-10.36139 286.6986,-44.89932 563.77645,-81.16415c67.34531,-8.63449 126.99401,-12.08828 132.76647,-6.90758c5.77246,3.45379 -9.62076,43.17242 -34.63473,88.07174c-55.8004,103.6138 -73.11776,281.48417 -40.40719,419.6359c13.46906,56.9876 28.86228,103.6138 36.55888,103.6138c5.77246,0 38.48303,-41.44553 69.26946,-89.79864l0,0.00002zm-365.58882,-112.24829c19.24152,-24.17656 19.24152,-36.26483 -3.8483,-69.07586c-17.31737,-24.17656 -23.08982,-51.8069 -15.39321,-69.07586c7.69661,-17.26897 17.31737,-67.34897 17.31737,-113.97518c3.8483,-65.62207 -1.92415,-79.43725 -25.01397,-74.25657c-96.20759,24.17656 -377.13374,62.16828 -402.14771,53.53379c-78.89022,-25.90346 61.57285,-236.58486 253.98803,-381.64418c115.4491,-86.34483 415.61677,-231.40416 479.11378,-231.40416c17.31737,0 32.71058,-10.36139 32.71058,-24.17656c0,-60.44139 -606.10779,-56.9876 -873.56488,5.18069c-84.66268,20.72276 -167.4012,36.26483 -186.64272,36.26483c-76.96607,0 -228.97405,471.4428 -259.76048,803.00698l-7.69661,94.97932l482.96208,0c434.85829,0 486.81038,-3.45379 507.97605,-29.35725l0,0.00002zm2001.11778,-8.63449c53.87625,-107.0676 379.05789,-151.96691 481.03793,-65.62207c26.93812,22.44965 48.10379,55.26069 48.10379,72.52967c0,27.63035 19.24152,31.08414 175.09781,31.08414l175.09781,0l-13.46906,-167.50898c-7.69661,-93.25243 -15.39321,-172.68968 -19.24152,-177.87036c-3.8483,-5.18069 -11.54491,-46.62621 -17.31737,-94.97932c-7.69661,-46.62621 -23.08982,-120.88278 -32.71058,-164.05519c-11.54491,-43.17242 -25.01397,-94.97932 -28.86228,-117.42897c-5.77246,-20.72276 -44.25549,-134.69794 -86.58683,-252.12693l-76.96607,-214.13519l-90.43513,25.90346c-50.02794,12.08828 -130.84232,32.81104 -180.87026,41.44553l-92.35928,18.99586l28.86228,48.35311c51.9521,91.52553 25.01397,329.83728 -40.40719,352.28693c-17.31737,6.90758 -53.87625,-6.90758 -86.58683,-32.81104c-71.19361,-53.53379 -169.32535,-77.71036 -309.78843,-77.71036l-111.6008,0l0,398.91315c0,217.589 5.77246,393.73246 15.39321,390.27866c7.69661,-5.18069 30.78643,-1.7269 51.9521,6.90758c21.16567,6.90758 73.11776,13.81518 115.4491,13.81518c61.57285,1.7269 80.81437,-5.18069 96.20759,-36.26483l0,-0.00003zm-319.40918,-385.09797l3.8483,-388.55176l-57.72455,0l-57.72455,0l-5.77246,379.91729c-5.77246,347.10625 -3.8483,379.91729 26.93812,379.91729c17.31737,0 38.48303,8.63449 44.25549,17.26897c34.63473,50.08 44.25549,-34.53793 46.17964,-388.55176l0,-0.00002zm-152.00799,-27.63035l0,-362.64832l-71.19361,5.18069l-73.11776,5.18069l3.8483,94.97932c5.77246,94.97932 3.8483,96.70622 -71.19361,141.60553c-113.52495,63.89518 -234.74651,77.71036 -319.40918,32.81104c-61.57285,-32.81104 -65.42116,-32.81104 -65.42116,-3.45379c0,17.26897 -21.16567,60.44139 -48.10379,94.97932l-46.17964,62.16828l46.17964,0c73.11776,0 257.83633,67.34897 323.25749,120.88278c82.73852,63.89518 267.45709,170.96278 298.24352,170.96278c17.31737,1.7269 23.08982,-82.89104 23.08982,-362.64832zm2641.8603,-559.51454c-5.77246,-15.54207 -15.39321,-24.17656 -19.24152,-18.99586c-5.77246,5.18069 -3.8483,15.54207 3.8483,25.90346c17.31737,27.63035 28.86228,22.44965 15.39321,-6.90758l0,-0.00002zm-38.48303,-72.52967c-17.31737,-43.17242 -121.22156,-189.95864 -121.22156,-172.68968c0,6.90758 19.24152,41.44553 44.25549,77.71036c25.01397,34.53793 50.02794,77.71036 57.72455,94.97932c5.77246,15.54207 17.31737,29.35725 21.16567,29.35725c5.77246,0 3.8483,-13.81518 -1.92415,-29.35725zm-3045.93216,-127.79036c0,-8.63449 -5.77246,-15.54207 -13.46906,-17.26897c-9.62076,0 -38.48303,-5.18069 -67.34531,-8.63449c-65.42116,-10.36139 -71.19361,22.44965 -9.62076,43.17242c46.17964,15.54207 90.43513,6.90758 90.43513,-17.26897zm-159.70459,-43.17242c-5.77246,-5.18069 -23.08982,-6.90758 -36.55888,-1.7269c-15.39321,5.18069 -9.62076,10.36139 11.54491,10.36139c21.16567,1.7269 32.71058,-3.45379 25.01397,-8.63449zm207.80838,-24.17656c30.78643,-44.89932 165.47705,-86.34483 279.002,-86.34483l115.4491,0l0,-448.99315c0,-246.94623 -5.77246,-448.99315 -13.46906,-448.99315c-7.69661,0 -92.35928,72.52967 -188.56687,162.32829c-188.56687,174.41657 -371.36128,393.73246 -513.74851,619.95593l-90.43513,141.60553l71.19361,12.08828c38.48303,6.90758 119.29741,24.17656 177.02196,37.99172c134.69062,31.08414 148.15968,31.08414 163.5529,10.36139l0,-0.00002zm2843.89623,-43.17242c-5.77246,-15.54207 -15.39321,-24.17656 -19.24152,-18.99586c-5.77246,5.18069 -3.8483,15.54207 3.8483,25.90346c17.31737,27.63035 28.86228,22.44965 15.39321,-6.90758l0,-0.00002zm-3217.18166,-428.27039c119.29741,-157.14761 261.68463,-321.20279 355.96807,-404.09383c44.25549,-41.44553 76.96607,-74.25657 71.19361,-74.25657c-5.77246,0 -82.73852,15.54207 -171.2495,34.53793c-344.42316,75.98346 -638.81837,196.86622 -925.51697,383.37108c-88.51098,56.9876 -159.70459,105.34071 -159.70459,108.7945c0,12.08828 198.18763,117.42897 394.4511,203.77382l209.73254,96.70622l73.11776,-120.88278c40.40719,-65.62207 107.7525,-169.23589 152.00799,-227.95037zm3107.50501,302.20693c-32.71058,-27.63035 -34.63473,-27.63035 -9.62076,8.63449c13.46906,20.72276 28.86228,34.53793 34.63473,29.35725c5.77246,-3.45379 -5.77246,-20.72276 -25.01397,-37.99172l0,-0.00002zm-73.11776,-88.07174c-25.01397,-29.35725 -51.9521,-51.8069 -59.6487,-51.8069c-9.62076,-1.7269 3.8483,20.72276 28.86228,48.35311c25.01397,29.35725 51.9521,51.8069 59.6487,51.8069c9.62076,1.7269 -3.8483,-20.72276 -28.86228,-48.35311zm-171.2495,-165.78208c-55.8004,-51.8069 -103.90419,-91.52553 -109.67665,-88.07174c-9.62076,10.36139 175.09781,183.05105 196.26347,183.05105c7.69661,0 -30.78643,-43.17242 -86.58683,-94.97932l0,0.00002zm-267.45709,-205.50071c0,-12.08828 -186.64272,-131.24415 -203.96008,-131.24415c-9.62076,0 30.78643,31.08414 88.51098,69.07586c109.67665,70.80276 115.4491,74.25657 115.4491,62.16828zm-307.86427,-191.68554c-13.46906,-15.54207 -28.86228,-22.44965 -36.55888,-17.26897c-5.77246,5.18069 1.92415,17.26897 17.31737,25.90346c40.40719,24.17656 46.17964,20.72276 19.24152,-8.63449zm-67.34531,-25.90346c-7.69661,-10.36139 -48.10379,-34.53793 -92.35928,-53.53379c-94.28343,-43.17242 -82.73852,-25.90346 21.16567,29.35725c84.66268,46.62621 86.58683,46.62621 71.19361,24.17656l0,-0.00002zm-211.65669,-103.6138c-5.77246,-8.63449 -26.93812,-17.26897 -44.25549,-17.26897c-28.86228,0 -28.86228,3.45379 -3.8483,17.26897c38.48303,22.44965 63.49701,22.44965 48.10379,0zm-284.77445,-96.70622c-5.77246,-5.18069 -23.08982,-6.90758 -36.55888,-1.7269c-15.39321,5.18069 -9.62076,10.36139 11.54491,10.36139c21.16567,1.7269 32.71058,-3.45379 25.01397,-8.63449z"/>
    <path stroke="null" id="svg_4" d="m3820.74285,1865.18021c26.93812,-18.99586 59.6487,-34.53793 73.11776,-36.26483c11.54491,-1.7269 32.71058,-3.45379 42.33134,-5.18069c11.54491,0 28.86228,-13.81518 38.48303,-27.63035c13.46906,-18.99586 19.24152,-18.99586 19.24152,-3.45379c0,22.44965 57.72455,22.44965 76.96607,1.7269c5.77246,-6.90758 21.16567,-1.7269 32.71058,12.08828c21.16567,18.99586 11.54491,24.17656 -48.10379,32.81104c-38.48303,5.18069 -119.29741,20.72276 -177.02196,34.53793c-105.82834,24.17656 -105.82834,24.17656 -57.72455,-8.63449z"/>
    <path stroke="null" id="svg_5" d="m4513.43746,1866.9071c0,-8.63449 40.40719,-32.81104 88.51098,-53.53379c67.34531,-31.08414 96.20759,-56.9876 128.91816,-119.15587c51.9521,-98.43311 50.02794,-96.70622 63.49701,-82.89104c21.16567,18.99586 -65.42116,162.32829 -119.29741,195.13933c-76.96607,46.62621 -161.62874,77.71036 -161.62874,60.44139l0,-0.00002z"/>
    <path stroke="null" id="svg_6" d="m4217.1181,1796.10433c13.46906,-12.08828 36.55888,-12.08828 67.34531,-1.7269c44.25549,15.54207 42.33134,17.26897 -19.24152,17.26897c-46.17964,1.7269 -61.57285,-3.45379 -48.10379,-15.54207z"/>
    <path stroke="null" id="svg_7" d="m4590.40353,1675.22156c0,-8.63449 9.62076,-17.26897 19.24152,-17.26897c11.54491,0 19.24152,8.63449 19.24152,17.26897c0,10.36139 -7.69661,17.26897 -19.24152,17.26897c-9.62076,0 -19.24152,-6.90758 -19.24152,-17.26897z"/>
    <path stroke="null" id="svg_8" d="m5052.19994,1597.51121c-13.46906,-13.81518 -30.78643,-20.72276 -40.40719,-15.54207c-9.62076,5.18069 -17.31737,-1.7269 -17.31737,-15.54207c0,-17.26897 -17.31737,-22.44965 -51.9521,-18.99586c-51.9521,3.45379 -51.9521,3.45379 -17.31737,-20.72276c57.72455,-36.26483 76.96607,-29.35725 132.76647,50.08c36.55888,50.08 32.71058,62.16828 -5.77246,20.72276z"/>
    <path stroke="null" id="svg_9" d="m4790.51531,1423.09463c-17.31737,-46.62621 -15.39321,-55.26069 1.92415,-41.44553c28.86228,22.44965 50.02794,82.89104 30.78643,93.25243c-7.69661,5.18069 -21.16567,-18.99586 -32.71058,-51.8069z"/>
    <path stroke="null" id="svg_10" d="m5321.58118,1417.91395c-13.46906,-22.44965 -21.16567,-22.44965 -46.17964,-3.45379c-25.01397,18.99586 -38.48303,17.26897 -82.73852,-6.90758l-51.9521,-31.08414l73.11776,-56.9876c105.82834,-82.89104 180.87026,-91.52553 290.54691,-32.81104c76.96607,39.71862 146.23553,117.42897 123.14571,136.42485c-3.8483,3.45379 -71.19361,10.36139 -148.15968,13.81518c-111.6008,5.18069 -144.31138,1.7269 -157.78044,-18.99586l0,-0.00002zm-53.87625,-53.53379c3.8483,-12.08828 25.01397,-12.08828 67.34531,0c32.71058,10.36139 90.43513,17.26897 126.99401,13.81518c63.49701,-5.18069 67.34531,-6.90758 40.40719,-37.99172c-38.48303,-48.35311 -188.56687,-46.62621 -244.36727,3.45379c-23.08982,20.72276 -30.78643,37.99172 -19.24152,37.99172c11.54491,0 25.01397,-8.63449 28.86228,-17.26897z"/>
    <path stroke="null" id="svg_11" d="m4423.00233,1238.31669c-57.72455,-15.54207 -90.43513,-63.89518 -42.33134,-63.89518c9.62076,0 13.46906,8.63449 7.69661,17.26897c-5.77246,10.36139 -1.92415,17.26897 7.69661,17.26897c11.54491,0 21.16567,-6.90758 21.16567,-13.81518c0,-8.63449 13.46906,-15.54207 28.86228,-15.54207c15.39321,0 25.01397,5.18069 19.24152,8.63449c-5.77246,5.18069 0,18.99586 13.46906,32.81104c28.86228,32.81104 15.39321,36.26483 -55.8004,17.26897z"/>
    <path stroke="null" id="svg_12" d="m4528.83068,1248.67806c13.46906,-5.18069 30.78643,-3.45379 36.55888,1.7269c7.69661,5.18069 -3.8483,10.36139 -25.01397,8.63449c-21.16567,0 -26.93812,-5.18069 -11.54491,-10.36139z"/>
    <path stroke="null" id="svg_13" d="m3666.81071,1226.22841c-17.31737,-10.36139 -19.24152,-17.26897 -5.77246,-17.26897c11.54491,0 28.86228,8.63449 34.63473,17.26897c15.39321,20.72276 7.69661,20.72276 -28.86228,0z"/>
    <path stroke="null" id="svg_14" d="m3843.83267,1210.68634c-17.31737,-8.63449 -9.62076,-18.99586 25.01397,-32.81104c26.93812,-12.08828 44.25549,-29.35725 38.48303,-37.99172c-5.77246,-10.36139 -3.8483,-17.26897 7.69661,-17.26897c9.62076,0 15.39321,18.99586 13.46906,43.17242c-5.77246,46.62621 -30.78643,81.16415 -30.78643,41.44553c0,-17.26897 -3.8483,-18.99586 -15.39321,-3.45379c-7.69661,12.08828 -25.01397,15.54207 -38.48303,6.90758l0,-0.00002z"/>
    <path stroke="null" id="svg_15" d="m4292.16002,1208.95944c-7.69661,-10.36139 -21.16567,-13.81518 -30.78643,-6.90758c-11.54491,5.18069 -9.62076,-5.18069 5.77246,-25.90346c23.08982,-34.53793 26.93812,-34.53793 50.02794,-6.90758c11.54491,15.54207 23.08982,34.53793 23.08982,43.17242c0,18.99586 -34.63473,17.26897 -48.10379,-3.45379l0,-0.00002z"/>
    <path stroke="null" id="svg_16" d="m5206.13208,1219.32082c0,-5.18069 17.31737,-17.26897 38.48303,-27.63035c21.16567,-10.36139 38.48303,-13.81518 38.48303,-10.36139c0,5.18069 -17.31737,17.26897 -38.48303,27.63035c-21.16567,10.36139 -38.48303,13.81518 -38.48303,10.36139z"/>
    <path stroke="null" id="svg_17" d="m3968.90253,1198.59806c-44.25549,-41.44553 107.7525,-58.71449 165.47705,-18.99586c28.86228,17.26897 25.01397,20.72276 -34.63473,18.99586c-36.55888,-1.7269 -73.11776,-6.90758 -80.81437,-13.81518c-19.24152,-17.26897 -48.10379,-12.08828 -34.63473,6.90758c13.46906,18.99586 3.8483,22.44965 -15.39321,6.90758l0,0.00002z"/>
    <path stroke="null" id="svg_18" d="m5494.75484,1176.14841c0,-10.36139 -32.71058,-20.72276 -71.19361,-24.17656l-73.11776,-6.90758l73.11776,-1.7269c42.33134,-1.7269 71.19361,-12.08828 71.19361,-24.17656c0,-15.54207 7.69661,-13.81518 19.24152,3.45379c25.01397,34.53793 25.01397,69.07586 0,69.07586c-9.62076,0 -19.24152,-6.90758 -19.24152,-15.54207l0,0.00002z"/>
    <path stroke="null" id="svg_19" d="m3407.05023,2300.35818c-92.35928,-13.81518 -365.58882,-77.71036 -392.52695,-89.79864c-17.31737,-8.63449 -125.06986,-55.26069 -242.44312,-103.6138c-115.4491,-50.08 -215.50499,-94.97932 -221.27745,-101.8869c-5.77246,-6.90758 -44.25549,-31.08414 -86.58683,-53.53379c-90.43513,-48.35311 -98.13174,-53.53379 -255.91218,-183.05105c-65.42116,-53.53379 -119.29741,-107.0676 -119.29741,-117.42897c0,-22.44965 109.67665,-113.97518 134.69062,-113.97518c9.62076,0 28.86228,-10.36139 42.33134,-22.44965c36.55888,-32.81104 298.24352,-170.96278 415.61677,-217.589c61.57285,-25.90346 107.7525,-36.26483 117.37325,-25.90346c9.62076,8.63449 67.34531,101.8869 126.99401,205.50071c123.14571,214.13519 211.65669,347.10625 286.6986,428.27039c26.93812,31.08414 80.81437,91.52553 117.37325,138.15174c38.48303,44.89932 76.96607,81.16415 88.51098,81.16415c9.62076,0 26.93812,17.26897 36.55888,39.71862c9.62076,20.72276 34.63473,56.9876 51.9521,81.16415l34.63473,43.17242l-48.10379,-34.53793c-194.33932,-138.15174 -484.88623,-509.43454 -644.59082,-820.27595c-30.78643,-62.16828 -57.72455,-115.70208 -61.57285,-119.15587c-15.39321,-24.17656 -386.75449,151.96691 -571.47306,272.84968l-94.28343,60.44139l109.67665,89.79864c300.16767,246.94623 719.63274,431.72418 1210.29143,531.88419c92.35928,18.99586 63.49701,46.62621 -34.63473,31.08414l0,-0.00005z"/>
    <path stroke="null" id="svg_20" d="m2906.77079,654.62559c30.78643,-43.17242 307.86427,-113.97518 329.02994,-82.89104c13.46906,18.99586 -11.54491,27.63035 -115.4491,39.71862c-51.9521,6.90758 -123.14571,22.44965 -159.70459,36.26483c-34.63473,13.81518 -59.6487,17.26897 -53.87625,6.90758l0,0.00002z"/>
    <path stroke="null" id="svg_21" d="m3647.56919,623.54144c0,-8.63449 21.16567,-20.72276 48.10379,-25.90346c67.34531,-15.54207 177.02196,-119.15587 192.41517,-181.32415c7.69661,-29.35725 21.16567,-53.53379 30.78643,-53.53379c26.93812,0 21.16567,29.35725 -19.24152,100.16001c-42.33134,72.52967 -82.73852,108.7945 -169.32535,148.51312c-71.19361,31.08414 -82.73852,32.81104 -82.73852,12.08828z"/>
    <path stroke="null" id="svg_22" d="m3345.47738,568.28076c50.02794,-25.90346 126.99401,-31.08414 142.38723,-10.36139c5.77246,10.36139 1.92415,12.08828 -9.62076,5.18069c-11.54491,-5.18069 -25.01397,-3.45379 -32.71058,6.90758c-5.77246,8.63449 -40.40719,17.26897 -73.11776,17.26897c-53.87625,-1.7269 -55.8004,-3.45379 -26.93812,-18.99586l0,0.00002z"/>
    <path stroke="null" id="svg_23" d="m4130.53127,312.70004c-15.39321,-8.63449 -44.25549,-13.81518 -63.49701,-10.36139c-19.24152,3.45379 -34.63473,0 -34.63473,-10.36139c0,-25.90346 107.7525,-17.26897 134.69062,10.36139c26.93812,29.35725 5.77246,34.53793 -36.55888,10.36139z"/>
    <path stroke="null" id="svg_24" d="m3930.4195,212.54002c-7.69661,-5.18069 -13.46906,-27.63035 -11.54491,-46.62621c0,-32.81104 1.92415,-32.81104 19.24152,5.18069c19.24152,41.44553 15.39321,62.16828 -7.69661,41.44553z"/>
    <path stroke="null" id="svg_25" d="m4465.33367,191.81726c-7.69661,-12.08828 -34.63473,-17.26897 -65.42116,-10.36139c-30.78643,5.18069 -65.42116,0 -88.51098,-17.26897c-38.48303,-24.17656 -36.55888,-27.63035 28.86228,-77.71036c101.98004,-77.71036 175.09781,-94.97932 253.98803,-58.71449c78.89022,36.26483 169.32535,110.52139 169.32535,139.87864c0,13.81518 -23.08982,22.44965 -55.8004,22.44965c-28.86228,0 -92.35928,5.18069 -140.46307,10.36139c-57.72455,6.90758 -92.35928,3.45379 -101.98004,-8.63449l0,0.00002zm221.27745,-50.08c0,-8.63449 -34.63473,-31.08414 -75.04192,-51.8069c-84.66268,-43.17242 -136.61477,-39.71862 -213.58084,13.81518l-48.10379,34.53793l59.6487,-10.36139c36.55888,-6.90758 65.42116,-1.7269 73.11776,8.63449c15.39321,22.44965 203.96008,25.90346 203.96008,5.18069z"/>
    <path stroke="null" id="svg_26" d="m3637.94844,17.40069c-21.16567,-8.63449 -71.19361,-15.54207 -109.67665,-15.54207c-40.40719,-1.7269 -73.11776,-8.63449 -73.11776,-18.99586c0,-8.63449 -11.54491,-12.08828 -25.01397,-6.90758c-17.31737,5.18069 -25.01397,-3.45379 -21.16567,-31.08414c7.69661,-70.80276 11.54491,-74.25657 25.01397,-31.08414c9.62076,34.53793 26.93812,44.89932 82.73852,48.35311c69.26946,5.18069 246.29142,72.52967 188.56687,70.80276c-15.39321,0 -46.17964,-6.90758 -67.34531,-15.54207z"/>
    <path stroke="null" id="svg_27" d="m2983.73685,-34.40621c-36.55888,-13.81518 -34.63473,-18.99586 11.54491,-24.17656c13.46906,0 28.86228,-17.26897 38.48303,-36.26483c17.31737,-39.71862 19.24152,-36.26483 25.01397,31.08414c3.8483,48.35311 -9.62076,53.53379 -75.04192,29.35725z"/>
    <path stroke="null" id="svg_28" d="m3181.92448,-29.22553c-51.9521,-3.45379 -92.35928,-13.81518 -92.35928,-24.17656c0,-8.63449 11.54491,-15.54207 25.01397,-15.54207c11.54491,0 44.25549,-5.18069 69.26946,-12.08828c34.63473,-6.90758 42.33134,-5.18069 30.78643,10.36139c-9.62076,15.54207 0,20.72276 28.86228,15.54207c25.01397,-3.45379 48.10379,5.18069 51.9521,17.26897c5.77246,10.36139 1.92415,18.99586 -7.69661,17.26897c-7.69661,-1.7269 -55.8004,-5.18069 -105.82834,-8.63449l0,0.00002z"/>
    <path stroke="null" id="svg_29" d="m4628.88657,-82.75932c0,-20.72276 7.69661,-37.99172 17.31737,-37.99172c19.24152,0 17.31737,44.89932 -3.8483,62.16828c-7.69661,6.90758 -13.46906,-3.45379 -13.46906,-24.17656z"/>
    <path stroke="null" id="svg_30" d="m4484.57519,-86.21311c-5.77246,-8.63449 -1.92415,-17.26897 7.69661,-17.26897c11.54491,0 21.16567,8.63449 21.16567,17.26897c0,10.36139 -3.8483,17.26897 -7.69661,17.26897c-5.77246,0 -15.39321,-6.90758 -21.16567,-17.26897z"/>
    <path stroke="null" id="svg_31" d="m5375.45743,-105.20897c-25.01397,-12.08828 -34.63473,-39.71862 -34.63473,-89.79864c0,-226.22347 -119.29741,-754.65387 -228.97405,-1013.68838c-71.19361,-167.50898 -59.6487,-186.50485 171.2495,-278.03037c78.89022,-31.08414 148.15968,-62.16828 153.93214,-69.07586c5.77246,-5.18069 53.87625,-31.08414 105.82834,-58.71449c53.87625,-25.90346 100.05589,-51.8069 105.82834,-58.71449c19.24152,-20.72276 134.69062,-69.07586 134.69062,-55.26069c0,6.90758 21.16567,24.17656 48.10379,36.26483c26.93812,12.08828 44.25549,25.90346 38.48303,31.08414c-3.8483,3.45379 30.78643,41.44553 76.96607,82.89104c48.10379,41.44553 86.58683,82.89104 86.58683,91.52553c0,8.63449 5.77246,18.99586 15.39321,22.44965c71.19361,27.63035 336.72655,466.26212 405.99601,670.03594c11.54491,32.81104 32.71058,100.16001 48.10379,146.78622c17.31737,48.35311 34.63473,113.97518 38.48303,146.78622c5.77246,32.81104 19.24152,113.97518 30.78643,177.87036c21.16567,129.51725 13.46906,200.32003 -23.08982,222.76968c-36.55888,20.72276 -1133.32536,15.54207 -1173.73254,-5.18069zm1177.58085,-24.17656c0,-3.45379 -13.46906,-94.97932 -30.78643,-202.04692c-69.26946,-455.90073 -242.44312,-816.82216 -563.77645,-1172.56288c-184.71856,-207.22761 -167.4012,-202.04692 -309.78843,-115.70208c-65.42116,39.71862 -217.42914,115.70208 -334.8024,169.23589l-213.58084,96.70622l53.87625,124.33657c107.7525,252.12693 196.26347,632.04421 217.42914,929.07044l13.46906,179.59726l583.01797,0c321.33334,0 584.94212,-3.45379 584.94212,-8.63449z"/>
    <path stroke="null" id="svg_32" d="m4024.70293,-1317.49048c-30.78643,-18.99586 -32.71058,-63.89518 -30.78643,-537.06489c0,-283.21107 5.77246,-523.24972 11.54491,-530.1573c26.93812,-41.44553 98.13174,-6.90758 227.0499,110.52139c209.73254,189.95864 405.99601,421.3628 523.36927,616.50214c19.24152,32.81104 51.9521,79.43725 71.19361,101.8869c17.31737,22.44965 32.71058,53.53379 32.71058,70.80276c0,41.44553 -61.57285,86.34483 -121.22156,86.34483c-26.93812,0 -53.87625,6.90758 -59.6487,15.54207c-5.77246,6.90758 -48.10379,18.99586 -92.35928,24.17656c-46.17964,5.18069 -155.85629,17.26897 -246.29142,27.63035c-90.43513,10.36139 -190.49102,22.44965 -221.27745,27.63035c-34.63473,5.18069 -75.04192,-1.7269 -94.28343,-13.81518zm373.28543,-62.16828c36.55888,-8.63449 107.7525,-20.72276 159.70459,-25.90346c50.02794,-5.18069 98.13174,-12.08828 105.82834,-17.26897c9.62076,-5.18069 46.17964,-13.81518 82.73852,-18.99586c34.63473,-5.18069 67.34531,-13.81518 71.19361,-17.26897c25.01397,-22.44965 -263.60878,-426.5435 -432.93413,-606.14076c-105.82834,-113.97518 -152.00799,-155.42071 -290.54691,-272.84968l-61.57285,-51.8069l0,523.24972l0,523.24972l150.08383,-10.36139c80.81437,-6.90758 178.94611,-18.99586 215.50499,-25.90346z"/>
    <path stroke="null" id="svg_33" d="m5002.172,-1498.81465c-19.24152,-10.36139 -192.41517,-253.85382 -225.12575,-314.29521c-26.93812,-51.8069 -192.41517,-265.9421 -211.65669,-272.84968c-30.78643,-13.81518 -225.12575,-231.40416 -225.12575,-255.58072c0,-12.08828 48.10379,20.72276 105.82834,75.98346c209.73254,200.32003 384.83034,423.08969 529.14172,675.21662c32.71058,58.71449 44.25549,67.34897 73.11776,53.53379c17.31737,-8.63449 98.13174,-43.17242 177.02196,-77.71036c138.53892,-58.71449 169.32535,-72.52967 332.87825,-162.32829l73.11776,-39.71862l-44.25549,-27.63035c-25.01397,-15.54207 -48.10379,-32.81104 -53.87625,-37.99172c-32.71058,-36.26483 -286.6986,-181.32415 -432.93413,-246.94623c-171.2495,-77.71036 -415.61677,-157.14761 -546.45909,-177.87036c-69.26946,-12.08828 -194.33932,-55.26069 -175.09781,-60.44139c36.55888,-10.36139 109.67665,-8.63449 125.06986,1.7269c11.54491,8.63449 63.49701,18.99586 115.4491,25.90346c53.87625,6.90758 119.29741,24.17656 150.08383,37.99172c28.86228,12.08828 51.9521,18.99586 51.9521,13.81518c0,-5.18069 34.63473,6.90758 76.96607,25.90346c40.40719,18.99586 88.51098,34.53793 105.82834,34.53793c15.39321,0 28.86228,5.18069 28.86228,13.81518c0,13.81518 92.35928,55.26069 123.14571,55.26069c11.54491,0 55.8004,24.17656 96.20759,51.8069c42.33134,29.35725 84.66268,51.8069 92.35928,51.8069c23.08982,0 142.38723,79.43725 236.67066,158.8745c63.49701,53.53379 73.11776,70.80276 55.8004,94.97932c-21.16567,31.08414 -238.59481,176.14347 -257.83633,172.68968c-5.77246,-1.7269 -84.66268,31.08414 -177.02196,70.80276c-186.64272,81.16415 -171.2495,75.98346 -200.11178,58.71449z"/>
    <path stroke="null" id="svg_34" d="m2916.39154,-554.20212c0,-8.63449 9.62076,-12.08828 19.24152,-6.90758c11.54491,5.18069 19.24152,13.81518 19.24152,18.99586c0,3.45379 -7.69661,6.90758 -19.24152,6.90758c-9.62076,0 -19.24152,-8.63449 -19.24152,-18.99586z"/>
    <path stroke="null" id="svg_35" d="m2067.84064,-587.01317c23.08982,-18.99586 51.9521,-29.35725 61.57285,-24.17656c9.62076,5.18069 17.31737,0 17.31737,-8.63449c0,-10.36139 11.54491,-18.99586 26.93812,-18.99586c15.39321,0 32.71058,-10.36139 36.55888,-20.72276c7.69661,-17.26897 11.54491,-17.26897 11.54491,0c1.92415,31.08414 94.28343,25.90346 101.98004,-5.18069c3.8483,-22.44965 11.54491,-20.72276 30.78643,8.63449c21.16567,32.81104 19.24152,34.53793 -48.10379,34.53793c-40.40719,0 -121.22156,15.54207 -178.94611,34.53793l-105.82834,34.53793l46.17964,-34.53793z"/>
    <path stroke="null" id="svg_36" d="m2762.45941,-593.92075c0,-3.45379 36.55888,-24.17656 82.73852,-43.17242c82.73852,-36.26483 167.4012,-127.79036 167.4012,-179.59726c0,-15.54207 9.62076,-29.35725 19.24152,-29.35725c67.34531,0 -63.49701,189.95864 -159.70459,229.67726c-65.42116,27.63035 -109.67665,37.99172 -109.67665,22.44965l0,0.00002z"/>
    <path stroke="null" id="svg_37" d="m2462.29174,-652.63525c11.54491,-17.26897 146.23553,-25.90346 146.23553,-8.63449c0,6.90758 -34.63473,15.54207 -76.96607,17.26897c-44.25549,3.45379 -75.04192,-1.7269 -69.26946,-8.63449l0,0.00002z"/>
    <path stroke="null" id="svg_38" d="m3205.0143,-918.57734c-23.08982,-17.26897 -34.63473,-31.08414 -23.08982,-31.08414c36.55888,0 119.29741,32.81104 119.29741,48.35311c0,25.90346 -50.02794,17.26897 -96.20759,-17.26897z"/>
    <path stroke="null" id="svg_39" d="m3039.53725,-1027.37183c-21.16567,-46.62621 3.8483,-63.89518 26.93812,-18.99586c13.46906,27.63035 15.39321,44.89932 1.92415,44.89932c-9.62076,0 -23.08982,-12.08828 -28.86228,-25.90346z"/>
    <path stroke="null" id="svg_40" d="m3582.14804,-1032.55252c-7.69661,-12.08828 -36.55888,-15.54207 -69.26946,-8.63449c-59.6487,10.36139 -123.14571,-20.72276 -103.90419,-50.08c30.78643,-44.89932 173.17365,-117.42897 228.97405,-117.42897c78.89022,0 288.62276,134.69794 255.91218,164.05519c-21.16567,20.72276 -298.24352,29.35725 -311.71258,12.08828zm175.09781,-82.89104c-67.34531,-51.8069 -152.00799,-53.53379 -228.97405,-5.18069c-30.78643,20.72276 -51.9521,41.44553 -46.17964,46.62621c5.77246,3.45379 23.08982,-1.7269 40.40719,-13.81518c23.08982,-17.26897 36.55888,-17.26897 69.26946,1.7269c23.08982,15.54207 73.11776,22.44965 128.91816,17.26897l88.51098,-5.18069l-51.9521,-41.44553z"/>
    <path stroke="null" id="svg_41" d="m1725.34164,-1219.05737c13.46906,-15.54207 42.33134,-24.17656 69.26946,-18.99586c23.08982,3.45379 46.17964,0 48.10379,-6.90758c3.8483,-8.63449 26.93812,-10.36139 51.9521,-3.45379c42.33134,10.36139 42.33134,10.36139 -17.31737,32.81104c-34.63473,13.81518 -88.51098,24.17656 -119.29741,24.17656c-51.9521,0 -55.8004,-3.45379 -32.71058,-27.63035l0,-0.00002z"/>
    <path stroke="null" id="svg_42" d="m2712.43146,-1208.69599c-9.62076,-8.63449 -44.25549,-17.26897 -75.04192,-18.99586c-32.71058,-1.7269 -71.19361,-5.18069 -86.58683,-8.63449c-38.48303,-8.63449 -46.17964,-75.98346 -7.69661,-75.98346c15.39321,0 26.93812,15.54207 26.93812,36.26483c0,27.63035 7.69661,32.81104 34.63473,24.17656c46.17964,-18.99586 107.7525,-13.81518 115.4491,8.63449c3.8483,8.63449 19.24152,17.26897 32.71058,17.26897c15.39321,0 32.71058,8.63449 38.48303,17.26897c15.39321,22.44965 -53.87625,22.44965 -78.89022,0z"/>
    <path stroke="null" id="svg_43" d="m2098.62707,-1260.5029c7.69661,-10.36139 21.16567,-13.81518 30.78643,-8.63449c9.62076,6.90758 17.31737,-5.18069 17.31737,-24.17656c0,-51.8069 28.86228,-44.89932 30.78643,6.90758c3.8483,34.53793 -5.77246,43.17242 -44.25549,43.17242c-26.93812,0 -42.33134,-6.90758 -34.63473,-17.26897l0,0.00002z"/>
    <path stroke="null" id="svg_44" d="m2214.07617,-1257.04909c-23.08982,-20.72276 -5.77246,-34.53793 44.25549,-34.53793c28.86228,0 57.72455,8.63449 65.42116,20.72276c9.62076,12.08828 15.39321,5.18069 15.39321,-15.54207c0,-29.35725 3.8483,-29.35725 19.24152,-8.63449c9.62076,13.81518 19.24152,31.08414 19.24152,37.99172c0,15.54207 -148.15968,13.81518 -163.5529,0l0,0.00002z"/>
    <path stroke="null" id="svg_45" d="m3736.08017,-1303.67531c7.69661,-13.81518 19.24152,-20.72276 28.86228,-15.54207c26.93812,13.81518 19.24152,41.44553 -11.54491,41.44553c-17.31737,0 -23.08982,-10.36139 -17.31737,-25.90346z"/>
    <path stroke="null" id="svg_46" d="m3628.32768,-1312.3098c38.48303,-22.44965 101.98004,-22.44965 86.58683,0c-5.77246,10.36139 -34.63473,17.26897 -63.49701,17.26897c-40.40719,0 -46.17964,-3.45379 -23.08982,-17.26897z"/>
    <path stroke="null" id="svg_47" d="m1588.72686,-1372.75119c0,-13.81518 13.46906,-25.90346 28.86228,-25.90346c17.31737,0 23.08982,10.36139 17.31737,25.90346c-7.69661,13.81518 -19.24152,25.90346 -28.86228,25.90346c-9.62076,0 -17.31737,-12.08828 -17.31737,-25.90346z"/>
    <path stroke="null" id="svg_48" d="m1713.79673,-1364.1167c-5.77246,-8.63449 -1.92415,-17.26897 7.69661,-17.26897c11.54491,0 21.16567,8.63449 21.16567,17.26897c0,10.36139 -3.8483,17.26897 -7.69661,17.26897c-5.77246,0 -15.39321,-6.90758 -21.16567,-17.26897z"/>
    <path stroke="null" id="svg_49" d="m1848.48734,-1381.38566c-13.46906,-39.71862 -38.48303,-44.89932 -55.8004,-12.08828c-7.69661,15.54207 -15.39321,15.54207 -21.16567,1.7269c-5.77246,-12.08828 -26.93812,-17.26897 -46.17964,-12.08828c-19.24152,5.18069 -40.40719,1.7269 -46.17964,-6.90758c-5.77246,-6.90758 46.17964,-15.54207 115.4491,-15.54207c67.34531,-1.7269 113.52495,3.45379 100.05589,12.08828c-11.54491,6.90758 -17.31737,24.17656 -11.54491,39.71862c7.69661,15.54207 3.8483,27.63035 -5.77246,27.63035c-9.62076,0 -23.08982,-15.54207 -28.86228,-34.53793z"/>
    <path stroke="null" id="svg_50" d="m1975.48136,-1497.08774c-3.8483,-51.8069 44.25549,-67.34897 90.43513,-27.63035c30.78643,25.90346 28.86228,34.53793 -5.77246,34.53793c-15.39321,0 -23.08982,-6.90758 -17.31737,-15.54207c5.77246,-6.90758 -1.92415,-13.81518 -19.24152,-13.81518c-15.39321,0 -32.71058,10.36139 -36.55888,22.44965c-7.69661,17.26897 -11.54491,17.26897 -11.54491,0l0,0.00002z"/>
    <path stroke="null" id="svg_51" d="m1863.88056,-1522.9912c5.77246,-29.35725 51.9521,-72.52967 63.49701,-60.44139c15.39321,12.08828 -28.86228,81.16415 -50.02794,81.16415c-11.54491,0 -17.31737,-10.36139 -13.46906,-20.72276z"/>
    <path stroke="null" id="svg_52" d="m1642.60311,-1543.71395c-28.86228,-18.99586 -28.86228,-22.44965 5.77246,-41.44553c32.71058,-18.99586 36.55888,-15.54207 36.55888,17.26897c0,36.26483 1.92415,36.26483 26.93812,5.18069c25.01397,-31.08414 26.93812,-31.08414 46.17964,3.45379c19.24152,31.08414 15.39321,34.53793 -30.78643,36.26483c-28.86228,0 -67.34531,-8.63449 -84.66268,-20.72276l0,0.00002z"/>
   </g>
  </g>
 </g>

</svg>
